<?xml version="1.0" encoding="UTF-8" standalone="no"?>
<!-- Created with Inkscape (http://www.inkscape.org/) -->

<svg
   version="1.1"
   id="svg1562"
   width="382.98065"
   height="293.31305"
   viewBox="0 0 382.98065 293.31305"
   sodipodi:docname="officeWork.svg"
   inkscape:version="1.2.2 (732a01da63, 2022-12-09)"
   xmlns:inkscape="http://www.inkscape.org/namespaces/inkscape"
   xmlns:sodipodi="http://sodipodi.sourceforge.net/DTD/sodipodi-0.dtd"
   xmlns="http://www.w3.org/2000/svg"
   xmlns:svg="http://www.w3.org/2000/svg">
  <defs
     id="defs1566">
    <clipPath
       clipPathUnits="userSpaceOnUse"
       id="clipPath1578">
      <path
         d="M 0,500 H 750 V 0 H 0 Z"
         id="path1576" />
    </clipPath>
    <clipPath
       clipPathUnits="userSpaceOnUse"
       id="clipPath2384">
      <path
         d="m 406.517,384.592 h 28.958 v 39.141 h -28.958 z"
         id="path2382" />
    </clipPath>
    <clipPath
       clipPathUnits="userSpaceOnUse"
       id="clipPath2496">
      <path
         d="M 0,500 H 750 V 0 H 0 Z"
         id="path2494" />
    </clipPath>
  </defs>
  <sodipodi:namedview
     id="namedview1564"
     pagecolor="#ffffff"
     bordercolor="#000000"
     borderopacity="0.25"
     inkscape:showpageshadow="2"
     inkscape:pageopacity="0.0"
     inkscape:pagecheckerboard="0"
     inkscape:deskcolor="#d1d1d1"
     showgrid="false"
     inkscape:zoom="1.3395"
     inkscape:cx="-405.74842"
     inkscape:cy="104.14334"
     inkscape:window-width="3200"
     inkscape:window-height="1771"
     inkscape:window-x="2391"
     inkscape:window-y="1341"
     inkscape:window-maximized="1"
     inkscape:current-layer="g2492">
    <inkscape:page
       x="0"
       y="0"
       id="page1568"
       width="382.98065"
       height="293.31305" />
  </sodipodi:namedview>
  <g
     id="g1570"
     inkscape:groupmode="layer"
     inkscape:label="Page 1"
     transform="matrix(1.3333333,0,0,-1.3333333,-518.69165,315.56769)">
    <g
       id="g2492"
       clip-path="url(#clipPath2496)">
      <g
         id="g2498"
         transform="translate(87.0103,24.9619)" />
      <g
         id="g2502"
         transform="translate(261.6797,167.8164)" />
      <g
         id="g2746"
         transform="translate(51.9185,18.0703)" />
      <g
         id="g2814"
         transform="translate(255.6499,77.4932)" />
      <g
         id="g2894"
         transform="translate(273.02,75.2598)" />
      <g
         id="g2950"
         transform="translate(441.1387,19.7617)">
        <path
           d="m 0,0 c -12.788,4.8 -25.858,9.762 -36.256,18.587 -10.397,8.825 -17.77,22.431 -15.428,35.825 2.379,13.599 13.673,23.561 21.63,34.867 12.937,18.381 17.338,41.153 23.475,62.743 6.137,21.592 15.347,43.997 34.09,56.48 11.084,7.382 25.324,10.551 38.141,6.878 12.818,-3.673 23.619,-14.755 25.329,-27.915 0.937,-7.203 -0.735,-14.483 -0.665,-21.746 0.07,-7.263 2.527,-15.318 8.981,-18.715 5.677,-2.989 12.585,-1.488 18.811,0.082 15.151,3.82 30.302,7.642 45.453,11.462 6.614,1.668 13.434,3.349 20.189,2.392 6.755,-0.957 13.51,-5.213 15.266,-11.772 2.209,-8.249 -3.914,-16.894 -2.184,-25.254 2.061,-9.956 13.482,-14.282 21.62,-20.429 C 235.934,90.28 239.495,63.745 229.914,44.1 220.332,24.453 200.231,11.448 179.078,5.616 157.925,-0.216 135.582,0.239 113.663,1.416 91.744,2.593 69.65,4.44 47.934,1.261 37.644,-0.246 27.466,-2.88 17.065,-3.062 6.666,-3.244 -4.36,-0.595 -11.563,6.87"
           style="fill:#fab0ff;fill-opacity:1;fill-rule:nonzero;stroke:none"
           id="path2952" />
      </g>
      <g
         id="g2954"
         transform="translate(572.29,191.8682)">
        <path
           d="m 0,0 c 0,-7.226 -5.889,-13.084 -13.153,-13.084 -7.265,0 -13.154,5.858 -13.154,13.084 0,7.227 5.889,13.085 13.154,13.085 C -5.889,13.085 0,7.227 0,0"
           style="fill:#fab0ff;fill-opacity:1;fill-rule:nonzero;stroke:none"
           id="path2956" />
      </g>
      <path
         d="M 652.213,18.25 H 405.145 v 5.352 h 247.068 z"
         style="fill:#ff6262;fill-opacity:1;fill-rule:nonzero;stroke:none"
         id="path2958" />
      <g
         id="g2960"
         transform="translate(382.2471,18.0703)">
        <path
           d="M 0,0 H 308.742"
           style="fill:none;stroke:#000000;stroke-width:0.768;stroke-linecap:round;stroke-linejoin:miter;stroke-miterlimit:10;stroke-dasharray:none;stroke-opacity:1"
           id="path2962" />
      </g>
      <g
         id="g2964"
         transform="translate(489.2412,68.9541)">
        <path
           d="m 0,0 h -37.053 l -9.341,72.763 h 37.052 z"
           style="fill:#aab2bd;fill-opacity:1;fill-rule:nonzero;stroke:none"
           id="path2966" />
      </g>
      <g
         id="g2968"
         transform="translate(480.3711,141.7168)">
        <path
           d="M 0,0 H -3.028 L 6.313,-72.763 H 9.342 Z"
           style="fill:#3d444f;fill-opacity:1;fill-rule:nonzero;stroke:none"
           id="path2970" />
      </g>
      <g
         id="g2972"
         transform="translate(445.3047,141.7168)">
        <path
           d="m 0,0 h -3.028 l 9.34,-72.763 h 3.029 z"
           style="fill:#3d444f;fill-opacity:1;fill-rule:nonzero;stroke:none"
           id="path2974" />
      </g>
      <g
         id="g2976"
         transform="translate(503.7119,63.3613)">
        <path
           d="m 0,0 h -48.597 c -1.992,0 -3.607,1.615 -3.607,3.607 v 1.002 c 0,1.994 1.615,3.608 3.607,3.608 H 0 c 1.992,0 3.607,-1.614 3.607,-3.608 V 3.607 C 3.607,1.615 1.992,0 0,0"
           style="fill:#3d444f;fill-opacity:1;fill-rule:nonzero;stroke:none"
           id="path2978" />
      </g>
      <g
         id="g2980"
         transform="translate(482.9717,147.2305)">
        <path
           d="m 0,0 v 0 c -0.61,2.396 -2.769,4.073 -5.241,4.073 h -34.406 c -3.529,0 -6.113,-3.324 -5.242,-6.743 0.612,-2.396 2.769,-4.073 5.242,-4.073 H -5.241 C -1.713,-6.743 0.87,-3.419 0,0"
           style="fill:#3d444f;fill-opacity:1;fill-rule:nonzero;stroke:none"
           id="path2982" />
      </g>
      <path
         d="m 481.764,29.845 h -4.7 v 35.774 h 4.7 z"
         style="fill:#3d444f;fill-opacity:1;fill-rule:nonzero;stroke:none"
         id="path2984" />
      <g
         id="g2986"
         transform="translate(501.2344,29.9316)">
        <path
           d="m 0,0 h -43.642 v 0.512 c 0,2.033 1.649,3.681 3.682,3.681 H -3.682 C -1.648,4.193 0,2.545 0,0.512 Z"
           style="fill:#3d444f;fill-opacity:1;fill-rule:nonzero;stroke:none"
           id="path2988" />
      </g>
      <g
         id="g2990"
         transform="translate(462.7158,27.0479)">
        <path
           d="m 0,0 c 0,-1.906 -1.546,-3.452 -3.452,-3.452 -1.907,0 -3.453,1.546 -3.453,3.452 0,1.906 1.546,3.452 3.453,3.452 C -1.546,3.452 0,1.906 0,0"
           style="fill:#3d444f;fill-opacity:1;fill-rule:nonzero;stroke:none"
           id="path2992" />
      </g>
      <g
         id="g2994"
         transform="translate(502.8291,27.0479)">
        <path
           d="m 0,0 c 0,-1.906 -1.546,-3.452 -3.453,-3.452 -1.906,0 -3.452,1.546 -3.452,3.452 0,1.906 1.546,3.452 3.452,3.452 C -1.546,3.452 0,1.906 0,0"
           style="fill:#3d444f;fill-opacity:1;fill-rule:nonzero;stroke:none"
           id="path2996" />
      </g>
      <g
         id="g2998"
         transform="translate(483.0293,27.0479)">
        <path
           d="m 0,0 c 0,-1.906 -1.546,-3.452 -3.452,-3.452 -1.907,0 -3.452,1.546 -3.452,3.452 0,1.906 1.545,3.452 3.452,3.452 C -1.546,3.452 0,1.906 0,0"
           style="fill:#3d444f;fill-opacity:1;fill-rule:nonzero;stroke:none"
           id="path3000" />
      </g>
      <g
         id="g3002"
         transform="translate(452.2451,130.626)">
        <path
           d="M 0,0 H 22.513"
           style="fill:none;stroke:#000000;stroke-width:1;stroke-linecap:butt;stroke-linejoin:miter;stroke-miterlimit:10;stroke-dasharray:none;stroke-opacity:1"
           id="path3004" />
      </g>
      <g
         id="g3006"
         transform="translate(453.7812,118.6787)">
        <path
           d="M 0,0 H 22.513"
           style="fill:none;stroke:#000000;stroke-width:1;stroke-linecap:butt;stroke-linejoin:miter;stroke-miterlimit:10;stroke-dasharray:none;stroke-opacity:1"
           id="path3008" />
      </g>
      <g
         id="g3010"
         transform="translate(455.3184,106.7314)">
        <path
           d="M 0,0 H 22.513"
           style="fill:none;stroke:#000000;stroke-width:1;stroke-linecap:butt;stroke-linejoin:miter;stroke-miterlimit:10;stroke-dasharray:none;stroke-opacity:1"
           id="path3012" />
      </g>
      <g
         id="g3014"
         transform="translate(456.8555,94.7852)">
        <path
           d="M 0,0 H 22.513"
           style="fill:none;stroke:#000000;stroke-width:1;stroke-linecap:butt;stroke-linejoin:miter;stroke-miterlimit:10;stroke-dasharray:none;stroke-opacity:1"
           id="path3016" />
      </g>
      <g
         id="g3018"
         transform="translate(458.3916,82.8379)">
        <path
           d="M 0,0 H 22.513"
           style="fill:none;stroke:#000000;stroke-width:1;stroke-linecap:butt;stroke-linejoin:miter;stroke-miterlimit:10;stroke-dasharray:none;stroke-opacity:1"
           id="path3020" />
      </g>
      <g
         id="g3022"
         transform="translate(506.8262,92.0879)">
        <path
           d="M 0,0 H -21.226 V -5.787 H 5.786 C 5.786,-2.591 3.196,0 0,0"
           style="fill:#3d444f;fill-opacity:1;fill-rule:nonzero;stroke:none"
           id="path3024" />
      </g>
      <g
         id="g3026"
         transform="translate(458.5371,153.3281)">
        <path
           d="m 0,0 c -0.679,1.596 -1.324,2.785 -2.687,3.926 -1.119,0.938 -2.65,1.881 -4.178,1.6 -2.505,-0.46 -3.923,-3.337 -4.834,-5.392 -0.931,-2.099 -1.883,-4.323 -1.633,-6.606 0.21,-1.916 1.254,-3.645 2.488,-5.126 1.235,-1.479 2.677,-2.776 3.898,-4.267 1.22,-1.491 2.235,-3.245 2.392,-5.165 0.158,-1.921 -0.717,-4.014 -2.449,-4.858 2.674,-0.181 5.404,0.688 7.482,2.381 2.077,1.694 3.478,4.194 3.839,6.849 0.385,2.832 -0.374,5.686 -1.247,8.407 C 2.175,-5.456 1.149,-2.701 0,0"
           style="fill:#543232;fill-opacity:1;fill-rule:nonzero;stroke:none"
           id="path3028" />
      </g>
      <g
         id="g3030"
         transform="translate(452.9346,152.6719)">
        <path
           d="m 0,0 c 0.995,-1.766 3.233,-2.189 5.079,-2.329 0.108,-0.008 0.19,-0.055 0.255,-0.114 0.471,0.029 0.94,0.115 1.41,0.279 C 6.377,-1.219 6,-0.277 5.603,0.656 4.924,2.252 4.278,3.441 2.916,4.582 2.476,4.951 1.971,5.317 1.428,5.613 -0.437,4.762 -0.927,1.646 0,0"
           style="fill:#ffe173;fill-opacity:1;fill-rule:nonzero;stroke:none"
           id="path3032" />
      </g>
      <g
         id="g3034"
         transform="translate(513.7764,108.1338)">
        <path
           d="M 0,0 C 0,0 1.922,-1.95 2.499,-2.142 3.076,-2.333 3.421,-2.227 3.421,-2.227 L 2.058,-0.34 Z"
           style="fill:#f5876e;fill-opacity:1;fill-rule:nonzero;stroke:none"
           id="path3036" />
      </g>
      <g
         id="g3038"
         transform="translate(513.127,110.3008)">
        <path
           d="m 0,0 5.125,-1.773 c 0,0 -0.166,-0.363 -0.766,-0.407 -0.599,-0.044 -2.17,0.326 -2.17,0.326 z"
           style="fill:#f5876e;fill-opacity:1;fill-rule:nonzero;stroke:none"
           id="path3040" />
      </g>
      <g
         id="g3042"
         transform="translate(504.0186,108.1338)">
        <path
           d="m 0,0 c 0,0 7.741,2.72 9.108,2.167 1.368,-0.552 4.81,-2.748 5.31,-3.595 0.499,-0.848 -2.938,0.337 -4.028,0.495 C 9.683,-0.831 7.956,-1.672 7.1,-2.076 6.112,-2.541 5.217,-2.852 4.437,-3.057 2.657,-3.525 0.825,-2.512 0.251,-0.763 Z"
           style="fill:#f5876e;fill-opacity:1;fill-rule:nonzero;stroke:none"
           id="path3044" />
      </g>
      <g
         id="g3046"
         transform="translate(506.8115,108.9902)">
        <path
           d="m 0,0 -19.017,2.17 -5.929,9.864 c -0.827,1.376 -2.414,2.104 -3.996,1.832 -2.73,-0.467 -4.114,-3.553 -2.646,-5.903 l 7.272,-11.639 2.31,-1.133 22.588,0.911 z"
           style="fill:#f5876e;fill-opacity:1;fill-rule:nonzero;stroke:none"
           id="path3048" />
      </g>
      <g
         id="g3050"
         transform="translate(496.0293,111.8477)">
        <path
           d="m 0,0 c -4.4,-0.33 -8.03,0.44 -8.03,0.44 l -1.87,2.97 -9.592,18.105 c 0,0 -1.925,5.044 -7.527,2.418 -1.374,-0.645 -2.048,-2.225 -1.611,-3.678 0.794,-2.641 2.589,-7.262 6.447,-12.693 l 6.121,-16.913 c 0,0 13.532,0.55 18.373,-0.549 C 7.15,-11.001 9.24,-9.351 9.24,-4.62 9.24,0.11 4.4,0.33 0,0"
           style="fill:#ccaf45;fill-opacity:1;fill-rule:nonzero;stroke:none"
           id="path3052" />
      </g>
      <g
         id="g3054"
         transform="translate(467.5059,130.0967)">
        <path
           d="m 0,0 v 0 c -2.037,-0.459 -4.111,1.213 -4.632,3.733 l -3.11,15.063 7.378,1.662 L 2.747,5.396 C 3.268,2.875 2.038,0.459 0,0"
           style="fill:#ffb49b;fill-opacity:1;fill-rule:nonzero;stroke:none"
           id="path3056" />
      </g>
      <g
         id="g3058"
         transform="translate(469.7559,137.8975)">
        <path
           d="m 0,0 c -3.412,-0.629 -7.447,3.331 -8.719,7.467 l -0.508,1.653 6.808,2.594 z"
           style="fill:#f5876e;fill-opacity:1;fill-rule:nonzero;stroke:none"
           id="path3060" />
      </g>
      <g
         id="g3062"
         transform="translate(471.1816,140.3066)">
        <path
           d="m 0,0 v 0 c -4.153,-0.866 -10.771,2.993 -11.638,7.146 l -1.818,8.167 c -0.818,3.788 1.312,7.592 4.97,8.874 4.362,1.527 9.076,-1.115 10.049,-5.633 L 3.402,10.282 C 4.269,6.129 1.816,0.378 0,0"
           style="fill:#ffb49b;fill-opacity:1;fill-rule:nonzero;stroke:none"
           id="path3064" />
      </g>
      <g
         id="g3066"
         transform="translate(473.9297,156.5859)">
        <path
           d="M 0,0 C 0.482,0.027 0.964,0.054 1.445,0.08 1.303,1.32 1.159,2.57 0.778,3.759 0.397,4.948 -0.239,6.087 -1.214,6.866 -2.059,7.542 -3.18,7.911 -4.239,7.757 -4.854,8.166 -5.5,8.498 -6.174,8.754 -6.35,8.867 -6.527,8.968 -6.707,9.041 c -0.417,0.17 -0.968,0.18 -1.413,0.251 -1.212,0.193 -2.453,0.174 -3.659,-0.055 -2.437,-0.46 -4.688,-1.764 -6.261,-3.685 -0.055,-0.068 -0.109,-0.136 -0.162,-0.204 -3.426,-4.411 -2.755,-11.765 1.925,-15.073 0.17,-0.121 2.574,-1.344 2.574,-1.126 10e-4,0.355 -0.263,0.723 -0.305,1.099 -0.069,0.633 -0.142,1.27 -0.129,1.908 0.023,1.016 0.153,2.03 0.386,3.019 0.005,0.021 0.01,0.042 0.015,0.063 0.212,0.871 0.485,1.454 1.007,2.165 0.947,1.292 1.168,3.199 1.097,4.762 0.184,-1.561 0.366,-3.122 0.55,-4.684 3.32,0.992 6.704,1.77 10.123,2.329 -0.005,0.044 -0.01,0.09 -0.014,0.136 l 0.261,0.015 c 0.285,-1.168 0.584,-2.325 0.831,-3.524 -0.078,0.38 -0.009,0.888 0.014,1.288 0.025,0.473 0.067,0.97 -0.011,1.441 C 0.075,-0.554 0.038,-0.276 0,0"
           style="fill:#543232;fill-opacity:1;fill-rule:nonzero;stroke:none"
           id="path3068" />
      </g>
      <g
         id="g3070"
         transform="translate(473.1816,151.9102)">
        <path
           d="M 0,0 -0.316,1.321 C -0.538,2.248 -1.966,1.855 -1.743,0.928 -1.639,0.487 -1.533,0.047 -1.428,-0.394 -1.206,-1.319 0.222,-0.927 0,0"
           style="fill:#000000;fill-opacity:1;fill-rule:nonzero;stroke:none"
           id="path3072" />
      </g>
      <g
         id="g3074"
         transform="translate(470.5244,147.8027)">
        <path
           d="M 0,0 C 0.47,0.016 0.937,0.14 1.354,0.358 1.471,0.419 1.595,0.505 1.614,0.635 1.641,0.818 1.45,0.95 1.296,1.053 0.646,1.479 0.208,2.211 0.138,2.984"
           style="fill:none;stroke:#000000;stroke-width:0.74;stroke-linecap:round;stroke-linejoin:miter;stroke-miterlimit:10;stroke-dasharray:none;stroke-opacity:1"
           id="path3076" />
      </g>
      <g
         id="g3078"
         transform="translate(468.9697,145.4473)">
        <path
           d="M 0,0 C 0.85,-0.445 1.844,-0.61 2.792,-0.464"
           style="fill:none;stroke:#000000;stroke-width:0.74;stroke-linecap:round;stroke-linejoin:miter;stroke-miterlimit:10;stroke-dasharray:none;stroke-opacity:1"
           id="path3080" />
      </g>
      <g
         id="g3082"
         transform="translate(467.1855,150.4756)">
        <path
           d="m 0,0 -0.316,1.321 c -0.222,0.926 -1.65,0.534 -1.428,-0.393 l 0.316,-1.322 C -1.206,-1.319 0.222,-0.928 0,0"
           style="fill:#000000;fill-opacity:1;fill-rule:nonzero;stroke:none"
           id="path3084" />
      </g>
      <g
         id="g3086"
         transform="translate(472.875,155.9434)">
        <path
           d="M 0,0 C -0.503,0.235 -1.128,0.187 -1.587,-0.126"
           style="fill:none;stroke:#000000;stroke-width:0.74;stroke-linecap:round;stroke-linejoin:miter;stroke-miterlimit:10;stroke-dasharray:none;stroke-opacity:1"
           id="path3088" />
      </g>
      <g
         id="g3090"
         transform="translate(465.7383,154.6455)">
        <path
           d="M 0,0 C -0.6,0.085 -1.232,-0.102 -1.69,-0.498"
           style="fill:none;stroke:#000000;stroke-width:0.74;stroke-linecap:round;stroke-linejoin:miter;stroke-miterlimit:10;stroke-dasharray:none;stroke-opacity:1"
           id="path3092" />
      </g>
      <g
         id="g3094"
         transform="translate(457.002,148.3887)">
        <path
           d="m 0,0 c 0.284,-1.187 1.438,-1.966 2.746,-1.955 0.4,0.003 0.683,0.396 0.6,0.786 L 2.545,2.563 C 2.475,2.894 2.156,3.119 1.821,3.076 0.006,2.843 -0.307,1.278 0,0"
           style="fill:#f5876e;fill-opacity:1;fill-rule:nonzero;stroke:none"
           id="path3096" />
      </g>
      <g
         id="g3098"
         transform="translate(548.7471,32.5215)">
        <path
           d="m 0,0 c -0.271,0.044 -0.543,0.091 -0.815,0.139 -2.432,0.427 -4.146,2.095 -6.304,3.502 -0.95,0.619 -2.082,2.064 -3.024,3.434 l -18.776,44.414 -1.427,1.675 c -0.25,0.292 -0.601,0.48 -0.983,0.524 l -28.204,5.446 -6.032,10.324 -17.309,-7.829 2.709,-15.144 c 0.692,-3.873 4.088,-6.674 8.021,-6.619 l 35.279,0.588 2.802,-3.252 4.507,-12.335 13.693,-18.037 c 0.722,-1.259 1.488,-2.614 1.939,-3.479 0.613,-1.176 0.503,-2.686 0.361,-3.849 -0.074,-0.632 -0.147,-1.278 -0.05,-1.921 0.271,-1.821 2.857,-1.647 5.765,-1.088 2.909,0.561 2.184,-0.24 6.295,0.01 4.112,0.251 5.426,1.714 5.58,2.316 C 4.166,-0.647 2.155,-0.357 0,0"
           style="fill:#f5876e;fill-opacity:1;fill-rule:nonzero;stroke:none"
           id="path3100" />
      </g>
      <g
         id="g3102"
         transform="translate(549.4756,32.4014)">
        <path
           d="m 0,0 c -1.265,-0.558 -2.595,-0.977 -3.923,-1.281 -3.527,-0.807 -6.967,-1.214 -10.461,-0.328 -10e-4,-0.23 0.007,-0.459 0.042,-0.69 0.272,-1.821 2.858,-1.647 5.766,-1.088 2.908,0.561 2.183,-0.24 6.295,0.01 4.111,0.251 5.426,1.714 5.58,2.316 C 3.422,-0.588 1.856,-0.307 0,0"
           style="fill:#cccccc;fill-opacity:1;fill-rule:nonzero;stroke:none"
           id="path3104" />
      </g>
      <g
         id="g3106"
         transform="translate(538.0596,40.8857)">
        <path
           d="m 0,0 -18.231,43.125 -1.427,1.675 c -0.25,0.292 -0.602,0.479 -0.984,0.523 l -28.204,5.447 -6.032,10.324 -17.309,-7.829 2.709,-15.144 c 0.693,-3.873 4.088,-6.675 8.022,-6.619 l 35.278,0.588 2.802,-3.252 4.508,-12.335 13.01,-17.138 C -3.832,-0.856 -1.7,-0.694 0,0"
           style="fill:#cccccc;fill-opacity:1;fill-rule:nonzero;stroke:none"
           id="path3108" />
      </g>
      <g
         id="g3110"
         transform="translate(520.4678,76.5527)">
        <path
           d="m 0,0 -0.313,1.79 c -0.309,1.757 -1.626,3.161 -3.361,3.576 -3.147,0.754 -24.423,5.538 -24.423,5.538 -0.429,0.096 -0.675,0.151 -0.675,0.151 l -0.047,-0.036 -6.681,1.058 -5.71,-0.357 -7.916,-9.597 3.415,-6.603 33.578,-0.578 -2.853,-10.519 0.581,-20.306 c -0.072,-1.45 -0.159,-3.004 -0.247,-3.976 -0.119,-1.321 -1.028,-2.532 -1.775,-3.434 -0.404,-0.492 -0.815,-0.996 -1.081,-1.589 -0.755,-1.68 1.516,-2.931 4.265,-4.03 2.75,-1.099 1.708,-1.382 5.304,-3.392 3.594,-2.009 5.491,-1.488 5.946,-1.065 0.405,0.375 -1.131,1.705 -2.751,3.169 -0.204,0.183 -0.408,0.37 -0.611,0.557 -1.816,1.674 -2.357,4.003 -3.415,6.352 -0.464,1.035 -0.636,2.862 -0.688,4.524 l 9.393,37.284 C 0.057,-0.999 0.079,-0.494 0,0"
           style="fill:#f5876e;fill-opacity:1;fill-rule:nonzero;stroke:none"
           id="path3112" />
      </g>
      <g
         id="g3114"
         transform="translate(516.4141,25.7295)">
        <path
           d="m 0,0 c -1.604,0.235 -3.182,0.603 -4.705,1.226 -3.066,1.253 -5.856,3.291 -8.129,5.721 -0.237,-0.314 -0.457,-0.642 -0.62,-1.006 -0.755,-1.679 1.516,-2.93 4.265,-4.03 2.75,-1.099 1.708,-1.382 5.303,-3.391 3.595,-2.01 5.491,-1.489 5.947,-1.066 C 2.407,-2.226 1.332,-1.204 0,0"
           style="fill:#ffffff;fill-opacity:1;fill-rule:nonzero;stroke:none"
           id="path3116" />
      </g>
      <g
         id="g3118"
         transform="translate(520.4678,76.5527)">
        <path
           d="m 0,0 -0.313,1.79 c -0.309,1.757 -1.626,3.161 -3.361,3.576 -3.147,0.754 -24.423,5.538 -24.423,5.538 -0.429,0.096 -0.675,0.151 -0.675,0.151 l -0.047,-0.036 -6.681,1.058 -2.25,-0.14 v 12.881 l -0.027,0.047 -17.309,-7.828 2.709,-15.144 c 0.693,-3.872 4.088,-6.674 8.023,-6.619 l 6.557,0.11 25.664,-0.442 -2.853,-10.519 0.581,-20.306 c -0.017,-0.328 -0.033,-0.662 -0.051,-0.993 1.564,-0.864 3.397,-1.19 5.207,-1.062 l 9.184,36.455 C 0.057,-0.999 0.079,-0.494 0,0"
           style="fill:#ffffff;fill-opacity:1;fill-rule:nonzero;stroke:none"
           id="path3120" />
      </g>
      <g
         id="g3122"
         transform="translate(489.9648,92.5752)">
        <path
           d="m 0,0 c -2.374,5.099 -4.695,11.798 -6.849,16.969 -1.108,2.662 -2.157,5.35 -3.116,8.086 -1.068,3.047 -1.928,6.114 -2.507,9.332 -0.37,2.054 -0.659,4.091 -1.578,6.05 -0.567,1.209 -1.393,2.292 -2.469,3.093 -0.839,0.627 -2.406,0.719 -2.68,1.791 -0.12,0.473 -0.159,1.011 -0.516,1.342 -0.559,0.519 -1.446,0.184 -2.165,-0.073 -1.493,-0.534 -3.151,-0.596 -4.68,-0.174 -0.576,0.159 -1.147,0.387 -1.745,0.378 -0.597,-0.01 -1.247,-0.339 -1.388,-0.92 -0.087,-0.356 0.031,-0.728 0.135,-1.08 0.513,-1.741 -2.061,-2.767 -3.082,-3.875 -0.786,-0.855 -1.602,-1.443 -2.118,-2.514 -0.515,-1.07 -0.737,-2.252 -0.711,-3.484 0.028,-1.233 0.466,-2.394 0.806,-3.603 0.821,-2.928 1.613,-6.04 2.457,-8.948 2.814,-9.709 6.301,-19.123 9.32,-28.748 C -14.584,-5.401 -6.912,-4.459 0,0"
           style="fill:#ffe173;fill-opacity:1;fill-rule:nonzero;stroke:none"
           id="path3124" />
      </g>
      <g
         id="g3126"
         transform="translate(477.6875,125.0576)">
        <path
           d="M 0,0 C 2.928,-9.639 6.543,-19.069 10.809,-28.195"
           style="fill:none;stroke:#000000;stroke-width:0.693;stroke-linecap:round;stroke-linejoin:miter;stroke-miterlimit:10;stroke-dasharray:none;stroke-opacity:1"
           id="path3128" />
      </g>
      <g
         id="g3130"
         transform="translate(463.0479,120.3418)">
        <path
           d="M 0,0 C 4.709,-4.102 9.951,-7.591 15.553,-10.352"
           style="fill:none;stroke:#000000;stroke-width:0.693;stroke-linecap:round;stroke-linejoin:miter;stroke-miterlimit:10;stroke-dasharray:none;stroke-opacity:1"
           id="path3132" />
      </g>
      <g
         id="g3134"
         transform="translate(465.5596,122.5205)">
        <path
           d="M 0,0 C 3.039,-3.166 6.579,-5.851 10.447,-7.924"
           style="fill:none;stroke:#000000;stroke-width:0.693;stroke-linecap:round;stroke-linejoin:miter;stroke-miterlimit:10;stroke-dasharray:none;stroke-opacity:1"
           id="path3136" />
      </g>
      <g
         id="g3138"
         transform="translate(461.4687,139.0264)">
        <path
           d="M 0,0 C -0.37,-1.007 -0.235,-2.187 0.354,-3.083"
           style="fill:none;stroke:#000000;stroke-width:0.693;stroke-linecap:round;stroke-linejoin:miter;stroke-miterlimit:10;stroke-dasharray:none;stroke-opacity:1"
           id="path3140" />
      </g>
      <g
         id="g3142"
         transform="translate(463.792,138.6748)">
        <path
           d="M 0,0 C 0.123,-0.952 0.246,-1.903 0.369,-2.855"
           style="fill:none;stroke:#000000;stroke-width:0.693;stroke-linecap:round;stroke-linejoin:miter;stroke-miterlimit:10;stroke-dasharray:none;stroke-opacity:1"
           id="path3144" />
      </g>
      <g
         id="g3146"
         transform="translate(466.7676,138.6895)">
        <path
           d="M 0,0 C 0.257,-0.953 0.513,-1.906 0.77,-2.86"
           style="fill:none;stroke:#000000;stroke-width:0.693;stroke-linecap:round;stroke-linejoin:miter;stroke-miterlimit:10;stroke-dasharray:none;stroke-opacity:1"
           id="path3148" />
      </g>
      <g
         id="g3150"
         transform="translate(468.5215,139.1201)">
        <path
           d="M 0,0 C 0.994,-0.654 1.574,-1.889 1.442,-3.071"
           style="fill:none;stroke:#000000;stroke-width:0.693;stroke-linecap:round;stroke-linejoin:miter;stroke-miterlimit:10;stroke-dasharray:none;stroke-opacity:1"
           id="path3152" />
      </g>
      <g
         id="g3154"
         transform="translate(471.4775,92.0879)">
        <path
           d="M 0,0 H -21.226 V -5.787 H 5.786 C 5.786,-2.591 3.195,0 0,0"
           style="fill:#3d444f;fill-opacity:1;fill-rule:nonzero;stroke:none"
           id="path3156" />
      </g>
      <g
         id="g3158"
         transform="translate(473.7471,95.1377)">
        <path
           d="M 0,0 C 2.107,0 4.212,0.558 6.042,1.603"
           style="fill:none;stroke:#000000;stroke-width:0.693;stroke-linecap:round;stroke-linejoin:miter;stroke-miterlimit:10;stroke-dasharray:none;stroke-opacity:1"
           id="path3160" />
      </g>
      <path
         d="M 626.813,93.249 H 425.944 v -5.554 h 200.869 z"
         style="fill:#3b2a2a;fill-opacity:1;fill-rule:nonzero;stroke:none"
         id="path3162" />
      <path
         d="m 628.716,95.445 h -4.94 V 23.897 h 4.94 z"
         style="fill:#513b3b;fill-opacity:1;fill-rule:nonzero;stroke:none"
         id="path3164" />
      <path
         d="m 429.146,95.445 h -4.94 V 23.897 h 4.94 z"
         style="fill:#513b3b;fill-opacity:1;fill-rule:nonzero;stroke:none"
         id="path3166" />
      <path
         d="M 632.91,93.249 H 412.68 v 7.118 h 220.23 z"
         style="fill:#513b3b;fill-opacity:1;fill-rule:nonzero;stroke:none"
         id="path3168" />
      <path
         d="M 638.644,93.249 H 437.775 v -5.554 h 200.869 z"
         style="fill:#604545;fill-opacity:1;fill-rule:nonzero;stroke:none"
         id="path3170" />
      <g
         id="g3172"
         transform="translate(447.916,90.5186)">
        <path
           d="M 0,0 H 146.227"
           style="fill:none;stroke:#000000;stroke-width:0.693;stroke-linecap:round;stroke-linejoin:miter;stroke-miterlimit:10;stroke-dasharray:none;stroke-opacity:1"
           id="path3174" />
      </g>
      <g
         id="g3176"
         transform="translate(588.6719,91.9844)">
        <path
           d="M 0,0 H 27.532"
           style="fill:none;stroke:#000000;stroke-width:0.693;stroke-linecap:round;stroke-linejoin:miter;stroke-miterlimit:10;stroke-dasharray:none;stroke-opacity:1"
           id="path3178" />
      </g>
      <path
         d="m 640.546,95.445 h -4.94 V 23.897 h 4.94 z"
         style="fill:#866161;fill-opacity:1;fill-rule:nonzero;stroke:none"
         id="path3180" />
      <path
         d="m 440.977,95.445 h -4.94 V 23.897 h 4.94 z"
         style="fill:#866161;fill-opacity:1;fill-rule:nonzero;stroke:none"
         id="path3182" />
      <path
         d="M 648.315,93.249 H 420.934 v 7.118 h 227.381 z"
         style="fill:#866161;fill-opacity:1;fill-rule:nonzero;stroke:none"
         id="path3184" />
      <g
         id="g3186"
         transform="translate(569.2334,111.667)">
        <path
           d="m 0,0 -52.911,0.002 c -1.678,0 -2.964,1.491 -2.717,3.15 l 5.179,34.889 c 0.2,1.347 1.356,2.344 2.718,2.344 L 6.672,40.384 c 1.724,0 3.022,-1.571 2.699,-3.264 L 2.699,2.231 C 2.451,0.937 1.318,0 0,0"
           style="fill:#3d444f;fill-opacity:1;fill-rule:nonzero;stroke:none"
           id="path3188" />
      </g>
      <g
         id="g3190"
         transform="translate(549.7881,101.8721)">
        <path
           d="M 0,0 -12.578,-0.115 -9.008,26.476 3.57,26.59 Z"
           style="fill:#3d444f;fill-opacity:1;fill-rule:nonzero;stroke:none"
           id="path3192" />
      </g>
      <g
         id="g3194"
         transform="translate(529.2734,103.0244)">
        <path
           d="M 0,0 27.521,-0.001 27.83,-2.541 0.31,-2.54 Z"
           style="fill:#3d444f;fill-opacity:1;fill-rule:nonzero;stroke:none"
           id="path3196" />
      </g>
      <g
         id="g3198"
         transform="translate(517.2363,116.5557)">
        <path
           d="m 0,0 5.281,32.758 52.306,0.09"
           style="fill:none;stroke:#000000;stroke-width:0.785;stroke-linecap:round;stroke-linejoin:miter;stroke-miterlimit:10;stroke-dasharray:none;stroke-opacity:1"
           id="path3200" />
      </g>
      <g
         id="g3202"
         transform="translate(540.7803,128.3477)">
        <path
           d="M 0,0 -3.014,-25.264"
           style="fill:none;stroke:#000000;stroke-width:0.785;stroke-linecap:round;stroke-linejoin:miter;stroke-miterlimit:10;stroke-dasharray:none;stroke-opacity:1"
           id="path3204" />
      </g>
      <g
         id="g3206"
         transform="translate(479.1055,100.1191)">
        <path
           d="m 0,0 h 27.377 v 0.229 c 0,0.911 -0.738,1.649 -1.648,1.649 H 1.648 C 0.738,1.878 0,1.14 0,0.229 Z"
           style="fill:#3d444f;fill-opacity:1;fill-rule:nonzero;stroke:none"
           id="path3208" />
      </g>
      <g
         id="g3210"
         transform="translate(517.5576,100.1406)">
        <path
           d="m 0,0 h -8.143 v 0.719 c 0,1.974 1.601,3.575 3.576,3.575 h 0.993 C -1.601,4.294 0,2.693 0,0.719 Z"
           style="fill:#3d444f;fill-opacity:1;fill-rule:nonzero;stroke:none"
           id="path3212" />
      </g>
      <g
         id="g3214"
         transform="translate(483.1807,101.0635)">
        <path
           d="M 0,0 C 0,0 1.678,-2.165 2.229,-2.424 2.778,-2.682 3.134,-2.617 3.134,-2.617 L 2.003,-0.582 Z"
           style="fill:#ffa587;fill-opacity:1;fill-rule:nonzero;stroke:none"
           id="path3216" />
      </g>
      <g
         id="g3218"
         transform="translate(482.793,103.292)">
        <path
           d="m 0,0 4.879,-2.369 c 0,0 -0.208,-0.339 -0.809,-0.312 C 3.47,-2.653 1.954,-2.1 1.954,-2.1 Z"
           style="fill:#ffa587;fill-opacity:1;fill-rule:nonzero;stroke:none"
           id="path3220" />
      </g>
      <g
         id="g3222"
         transform="translate(473.4922,102.2197)">
        <path
           d="m 0,0 c 0,0 8.009,1.783 9.301,1.072 1.292,-0.711 4.45,-3.299 4.845,-4.199 0.396,-0.901 -2.876,0.684 -3.941,0.969 C 9.516,-1.974 7.702,-2.604 6.804,-2.903 5.768,-3.248 4.842,-3.45 4.043,-3.562 2.22,-3.815 0.521,-2.592 0.158,-0.787 Z"
           style="fill:#ffb49b;fill-opacity:1;fill-rule:nonzero;stroke:none"
           id="path3224" />
      </g>
      <g
         id="g3226"
         transform="translate(476.3672,102.7383)">
        <path
           d="m 0,0 -20.395,5.446 5.747,17.717 -6.617,2.287 -6.546,-24.871 2.085,-1.506 25.841,-3.012 z"
           style="fill:#ffb49b;fill-opacity:1;fill-rule:nonzero;stroke:none"
           id="path3228" />
      </g>
      <g
         id="g3230"
         transform="translate(473.9805,105.5693)">
        <path
           d="m 0,0 c -3.543,0.169 -11.227,1.737 -15.204,3.285 l 5.048,18.096 c 0,0 2.422,4.825 -3.297,7.184 -1.402,0.58 -3.025,0.01 -3.801,-1.294 -1.412,-2.368 -3.609,-6.811 -5.012,-13.324 l -2.027,-8.734 c 0,0 -2.993,-9.874 -0.469,-10.457 4.489,-1.035 14.469,0 17.867,-0.971 3.4,-0.971 3.4,-4.176 6.604,-2.622 C 2.913,-7.283 4.078,-0.194 0,0"
           style="fill:#ffe173;fill-opacity:1;fill-rule:nonzero;stroke:none"
           id="path3232" />
      </g>
      <g
         id="g3234"
         transform="translate(458.7764,108.8545)">
        <path
           d="M 0,0 C 1.712,5.922 3.257,12.051 4.969,17.973"
           style="fill:none;stroke:#000000;stroke-width:0.693;stroke-linecap:round;stroke-linejoin:miter;stroke-miterlimit:10;stroke-dasharray:none;stroke-opacity:1"
           id="path3236" />
      </g>
      <g
         id="g3238"
         transform="translate(462.3623,121.8174)">
        <path
           d="M 0,0 C 0.717,0.822 1.435,1.645 2.151,2.466"
           style="fill:none;stroke:#000000;stroke-width:0.693;stroke-linecap:round;stroke-linejoin:miter;stroke-miterlimit:10;stroke-dasharray:none;stroke-opacity:1"
           id="path3240" />
      </g>
      <g
         id="g3242"
         transform="translate(453.9375,107.7715)">
        <path
           d="M 0,0 C 1.53,0.765 3.129,1.096 4.839,1.083"
           style="fill:none;stroke:#000000;stroke-width:0.693;stroke-linecap:round;stroke-linejoin:miter;stroke-miterlimit:10;stroke-dasharray:none;stroke-opacity:1"
           id="path3244" />
      </g>
      <g
         id="g3246"
         transform="translate(456.8389,107.1074)">
        <path
           d="M 0,0 C 0.722,0.536 1.217,1.211 1.937,1.747"
           style="fill:none;stroke:#000000;stroke-width:0.693;stroke-linecap:round;stroke-linejoin:miter;stroke-miterlimit:10;stroke-dasharray:none;stroke-opacity:1"
           id="path3248" />
      </g>
      <g
         id="g3250"
         transform="translate(458.7764,108.8545)">
        <path
           d="m 0,0 c 4.91,-1.66 9.344,-2.214 14.013,-3.148 0.762,-0.153 1.541,-0.311 2.217,-0.696 1.915,-1.089 1.864,-3.8 1.086,-5.596 -0.611,-1.414 -1.793,-2.571 -3.219,-3.151"
           style="fill:none;stroke:#000000;stroke-width:0.693;stroke-linecap:round;stroke-linejoin:miter;stroke-miterlimit:10;stroke-dasharray:none;stroke-opacity:1"
           id="path3252" />
      </g>
      <g
         id="g3254"
         transform="translate(602.2432,125.9238)">
        <path
           d="m 0,0 c 0,0 -6.456,1.938 -4.748,6.896 0,0 1.548,3.156 3.69,4.356 0,0 0.223,-6.778 1.482,-6.659 1.259,0.119 -0.793,7.535 -0.793,7.535 0,0 5.399,4.254 7.824,4.552 0,0 -2.338,-7.187 -1.147,-6.762 1.19,0.426 3.97,7.791 3.97,7.791 0,0 5.944,2.527 7.756,-0.925 1.813,-3.452 0.613,-5.646 -0.254,-6.081 -0.867,-0.433 -6.777,-1.668 -6.454,-2.399 0.323,-0.732 4.575,-1.071 6.642,0.111 0,0 -1.104,-6.591 -4.387,-7 C 10.299,1.006 8.861,2.775 6.837,2.485 4.812,2.195 3.478,1.336 4.592,1.022 5.706,0.708 8.994,1.817 10.905,0.808 c 1.911,-1.009 3.4,-1.561 0.551,-2.837 C 8.607,-3.306 3.164,-4.115 1.582,-2.058 Z"
           style="fill:#e6e6e6;fill-opacity:1;fill-rule:nonzero;stroke:none"
           id="path3256" />
      </g>
      <g
         id="g3258"
         transform="translate(613.1592,131.6162)">
        <path
           d="M 0,0 C -2.022,0.294 -4.046,0.589 -6.068,0.884"
           style="fill:none;stroke:#000000;stroke-width:0.882;stroke-linecap:round;stroke-linejoin:round;stroke-miterlimit:10;stroke-dasharray:none;stroke-opacity:1"
           id="path3260" />
      </g>
      <g
         id="g3262"
         transform="translate(606.4746,137.6934)">
        <path
           d="M 0,0 C 0.416,-1.29 0.945,-2.951 1.362,-4.242"
           style="fill:none;stroke:#000000;stroke-width:0.882;stroke-linecap:round;stroke-linejoin:round;stroke-miterlimit:10;stroke-dasharray:none;stroke-opacity:1"
           id="path3264" />
      </g>
      <g
         id="g3266"
         transform="translate(613.8154,139.291)">
        <path
           d="m 0,0 c -3.283,-3.005 -6.608,-6.058 -8.976,-9.826 -3.145,-5.01 -4.414,-11.168 -3.504,-17.013"
           style="fill:none;stroke:#000000;stroke-width:0.882;stroke-linecap:round;stroke-linejoin:round;stroke-miterlimit:10;stroke-dasharray:none;stroke-opacity:1"
           id="path3268" />
      </g>
      <g
         id="g3270"
         transform="translate(601.5576,130.4023)">
        <path
           d="M 0,0 C 0.615,-0.997 1.23,-1.994 1.846,-2.99"
           style="fill:none;stroke:#000000;stroke-width:0.882;stroke-linecap:round;stroke-linejoin:round;stroke-miterlimit:10;stroke-dasharray:none;stroke-opacity:1"
           id="path3272" />
      </g>
      <g
         id="g3274"
         transform="translate(606.5527,125.7861)">
        <path
           d="M 0,0 C -1.082,0.29 -2.164,0.581 -3.246,0.872"
           style="fill:none;stroke:#000000;stroke-width:0.882;stroke-linecap:round;stroke-linejoin:round;stroke-miterlimit:10;stroke-dasharray:none;stroke-opacity:1"
           id="path3276" />
      </g>
      <g
         id="g3278"
         transform="translate(613.3232,141.4062)">
        <path
           d="M 0,0 C -0.302,-1.061 -0.603,-2.12 -0.904,-3.181"
           style="fill:none;stroke:#000000;stroke-width:0.882;stroke-linecap:round;stroke-linejoin:round;stroke-miterlimit:10;stroke-dasharray:none;stroke-opacity:1"
           id="path3280" />
      </g>
      <g
         id="g3282"
         transform="translate(612.3359,137.6582)">
        <path
           d="M 0,0 C 1.473,0.27 2.946,0.539 4.419,0.809"
           style="fill:none;stroke:#000000;stroke-width:0.882;stroke-linecap:round;stroke-linejoin:round;stroke-miterlimit:10;stroke-dasharray:none;stroke-opacity:1"
           id="path3284" />
      </g>
      <g
         id="g3286"
         transform="translate(608.084,118.4072)">
        <path
           d="m 0,0 c 0,0 -2.805,3.272 -0.173,5.351 0,0 1.922,1.163 3.489,1.069 0,0 -2.22,-3.725 -1.503,-4.095 0.719,-0.371 2.176,4.328 2.176,4.328 0,0 4.374,0.424 5.782,-0.253 0,0 -3.74,-3.059 -2.952,-3.242 0.787,-0.181 4.827,2.821 4.827,2.821 0,0 4.071,-0.692 3.854,-3.175 C 15.282,0.32 13.88,-0.447 13.264,-0.381 12.646,-0.314 9.04,1.062 8.962,0.557 8.883,0.052 11.054,-1.6 12.574,-1.677 c 0,0 -2.87,-3.165 -4.778,-2.252 -1.907,0.914 -2.07,2.363 -3.259,2.906 C 3.348,-0.48 2.333,-0.481 2.823,-1.036 3.314,-1.59 5.467,-2.128 6.146,-3.331 6.826,-4.534 7.437,-5.345 5.463,-5.048 3.489,-4.751 0.281,-3.307 0.141,-1.653 Z"
           style="fill:#ffffff;fill-opacity:1;fill-rule:nonzero;stroke:none"
           id="path3288" />
      </g>
      <g
         id="g3290"
         transform="translate(611.6348,120.0635)">
        <path
           d="M 0,0 C 0.813,1.111 1.627,2.224 2.44,3.336"
           style="fill:none;stroke:#000000;stroke-width:0.882;stroke-linecap:round;stroke-linejoin:round;stroke-miterlimit:10;stroke-dasharray:none;stroke-opacity:1"
           id="path3292" />
      </g>
      <g
         id="g3294"
         transform="translate(613.3633,120.124)">
        <path
           d="M 0,0 2.818,-1.951"
           style="fill:none;stroke:#000000;stroke-width:0.882;stroke-linecap:round;stroke-linejoin:round;stroke-miterlimit:10;stroke-dasharray:none;stroke-opacity:1"
           id="path3296" />
      </g>
      <g
         id="g3298"
         transform="translate(618.2207,120.9072)">
        <path
           d="m 0,0 c -3.076,-0.37 -6.691,-0.665 -9.465,-2.135 -2.404,-1.274 -4.335,-3.453 -5.234,-6.028"
           style="fill:none;stroke:#000000;stroke-width:0.882;stroke-linecap:round;stroke-linejoin:round;stroke-miterlimit:10;stroke-dasharray:none;stroke-opacity:1"
           id="path3300" />
      </g>
      <g
         id="g3302"
         transform="translate(595.6221,121.9756)">
        <path
           d="m 0,0 c 0,0 4.654,2.117 2.862,5.669 0,0 -1.485,2.214 -3.218,2.896 0,0 0.525,-5.118 -0.433,-5.157 -0.958,-0.039 -0.175,5.745 -0.175,5.745 0,0 -4.494,2.646 -6.347,2.621 0,0 2.493,-5.163 1.554,-4.964 -0.938,0.198 -3.781,5.45 -3.781,5.45 0,0 -4.727,1.291 -5.735,-1.489 -1.01,-2.781 0.116,-4.308 0.812,-4.545 0.696,-0.238 5.266,-0.561 5.098,-1.144 -0.169,-0.583 -3.33,-1.272 -5.005,-0.596 0,0 1.505,-4.84 4.014,-4.812 2.509,0.028 3.409,1.505 4.96,1.494 1.551,-0.011 2.643,-0.52 1.837,-0.87 -0.805,-0.351 -3.39,0.147 -4.723,-0.807 -1.334,-0.954 -2.396,-1.521 -0.124,-2.189 2.272,-0.668 6.446,-0.72 7.425,0.989 z"
           style="fill:#ffffff;fill-opacity:1;fill-rule:nonzero;stroke:none"
           id="path3304" />
      </g>
      <g
         id="g3306"
         transform="translate(591.6318,126.3701)">
        <path
           d="M 0,0 C -1.446,0.057 -2.892,0.112 -4.338,0.169"
           style="fill:none;stroke:#000000;stroke-width:0.882;stroke-linecap:round;stroke-linejoin:round;stroke-miterlimit:10;stroke-dasharray:none;stroke-opacity:1"
           id="path3308" />
      </g>
      <g
         id="g3310"
         transform="translate(591.1084,129.8145)">
        <path
           d="M 0,0 C 0.211,-1.157 0.423,-2.314 0.634,-3.472"
           style="fill:none;stroke:#000000;stroke-width:0.882;stroke-linecap:round;stroke-linejoin:round;stroke-miterlimit:10;stroke-dasharray:none;stroke-opacity:1"
           id="path3312" />
      </g>
      <g
         id="g3314"
         transform="translate(582.7598,130.7979)">
        <path
           d="m 0,0 c 4.581,-0.865 8.799,-3.525 11.554,-7.287 2.478,-3.383 3.81,-7.565 5.428,-11.397"
           style="fill:none;stroke:#000000;stroke-width:0.882;stroke-linecap:round;stroke-linejoin:round;stroke-miterlimit:10;stroke-dasharray:none;stroke-opacity:1"
           id="path3316" />
      </g>
      <g
         id="g3318"
         transform="translate(595.6152,125.4238)">
        <path
           d="M 0,0 C -0.282,-0.892 -0.564,-1.783 -0.847,-2.674"
           style="fill:none;stroke:#000000;stroke-width:0.882;stroke-linecap:round;stroke-linejoin:round;stroke-miterlimit:10;stroke-dasharray:none;stroke-opacity:1"
           id="path3320" />
      </g>
      <g
         id="g3322"
         transform="translate(592.1289,121.7725)">
        <path
           d="M 0,0 2.701,0.929"
           style="fill:none;stroke:#000000;stroke-width:0.882;stroke-linecap:round;stroke-linejoin:round;stroke-miterlimit:10;stroke-dasharray:none;stroke-opacity:1"
           id="path3324" />
      </g>
      <g
         id="g3326"
         transform="translate(602.877,101.5146)">
        <path
           d="M 0,0 C 6.362,0 11.52,5.157 11.52,11.52 H -11.52 C -11.52,5.157 -6.362,0 0,0"
           style="fill:#ff6262;fill-opacity:1;fill-rule:nonzero;stroke:none"
           id="path3328" />
      </g>
      <path
         d="m 606.27,100.925 h -7.317 v 1.314 h 7.317 z"
         style="fill:#ff6262;fill-opacity:1;fill-rule:nonzero;stroke:none"
         id="path3330" />
      <g
         id="g3332"
         transform="translate(591.7002,110.5273)">
        <path
           d="M 0,0 H 22.362"
           style="fill:none;stroke:#000000;stroke-width:1.259;stroke-linecap:round;stroke-linejoin:round;stroke-miterlimit:10;stroke-dasharray:none;stroke-opacity:1"
           id="path3334" />
      </g>
      <g
         id="g3336"
         transform="translate(428.9756,102.001)">
        <path
           d="m 0,0 v -1.055 c 0,-0.232 0.187,-0.42 0.42,-0.42 h 4.51 c 0.232,0 0.42,0.188 0.42,0.42 V 0 Z"
           style="fill:#3d444f;fill-opacity:1;fill-rule:nonzero;stroke:none"
           id="path3338" />
      </g>
      <g
         id="g3340"
         transform="translate(435.7705,107.5303)">
        <path
           d="m 0,0 h 1.831 c 1.195,0 2.165,-0.97 2.165,-2.165 0,-1.195 -0.97,-2.164 -2.165,-2.164 H 0"
           style="fill:none;stroke:#000000;stroke-width:0.882;stroke-linecap:round;stroke-linejoin:round;stroke-miterlimit:10;stroke-dasharray:none;stroke-opacity:1"
           id="path3342" />
      </g>
      <g
         id="g3344"
         transform="translate(429.0068,101.5645)">
        <path
           d="m 0,0 h 5.287 c 1.384,0.879 2.31,2.415 2.31,4.176 V 7.214 H -2.309 V 4.176 C -2.309,2.415 -1.384,0.879 0,0"
           style="fill:#3d444f;fill-opacity:1;fill-rule:nonzero;stroke:none"
           id="path3346" />
      </g>
      <g
         id="g3348"
         transform="translate(426.6973,105.0469)">
        <path
           d="M 0,0 H 9.906"
           style="fill:none;stroke:#ffffff;stroke-width:0.882;stroke-linecap:round;stroke-linejoin:round;stroke-miterlimit:10;stroke-dasharray:none;stroke-opacity:1"
           id="path3350" />
      </g>
      <g
         id="g3352"
         transform="translate(429.3564,110.5225)">
        <path
           d="m 0,0 c -0.878,0.727 -0.977,2.067 -0.648,3.159 0.329,1.091 0.995,2.047 1.439,3.097 0.786,1.862 0.836,4.025 0.135,5.922"
           style="fill:none;stroke:#ffffff;stroke-width:1.259;stroke-linecap:round;stroke-linejoin:round;stroke-miterlimit:10;stroke-dasharray:none;stroke-opacity:1"
           id="path3354" />
      </g>
      <g
         id="g3356"
         transform="translate(637.8213,102.7471)">
        <path
           d="M 0,0 V 32.317"
           style="fill:none;stroke:#000000;stroke-width:1;stroke-linecap:butt;stroke-linejoin:miter;stroke-miterlimit:10;stroke-dasharray:none;stroke-opacity:1"
           id="path3358" />
      </g>
      <g
         id="g3360"
         transform="translate(636.2402,102.7471)">
        <path
           d="M 0,0 V 32.317"
           style="fill:none;stroke:#000000;stroke-width:1;stroke-linecap:butt;stroke-linejoin:miter;stroke-miterlimit:10;stroke-dasharray:none;stroke-opacity:1"
           id="path3362" />
      </g>
      <g
         id="g3364"
         transform="translate(638.0723,134.9307)">
        <path
           d="M 0,0 C -0.393,0.213 -0.785,0.427 -1.178,0.64 L -31.156,22.948"
           style="fill:none;stroke:#000000;stroke-width:1;stroke-linecap:butt;stroke-linejoin:miter;stroke-miterlimit:10;stroke-dasharray:none;stroke-opacity:1"
           id="path3366" />
      </g>
      <g
         id="g3368"
         transform="translate(599.916,154.0869)">
        <path
           d="M 0,0 C 0,-1.902 1.543,-3.444 3.445,-3.444 5.348,-3.444 6.89,-1.902 6.89,0 6.89,1.902 5.348,3.444 3.445,3.444 1.543,3.444 0,1.902 0,0"
           style="fill:#ffffff;fill-opacity:1;fill-rule:nonzero;stroke:none"
           id="path3370" />
      </g>
      <g
         id="g3372"
         transform="translate(597.5049,156.4258)">
        <path
           d="M 0,0 C 1.63,3.019 5.361,4.244 8.473,2.727 11.585,1.208 12.915,-2.486 11.54,-5.63 Z"
           style="fill:#000000;fill-opacity:1;fill-rule:nonzero;stroke:none"
           id="path3374" />
      </g>
      <g
         id="g3376"
         transform="translate(635.3447,134.8662)">
        <path
           d="M 0,0 C 0,-0.907 0.736,-1.643 1.643,-1.643 2.55,-1.643 3.285,-0.907 3.285,0 3.285,0.907 2.55,1.643 1.643,1.643 0.736,1.643 0,0.907 0,0"
           style="fill:#000000;fill-opacity:1;fill-rule:nonzero;stroke:none"
           id="path3378" />
      </g>
      <g
         id="g3380"
         transform="translate(627.1484,103.0439)">
        <path
           d="m 0,0 h 19.573 c 1.006,0 1.822,-0.816 1.822,-1.822 V -2.075 H -1.822 v 0.253 C -1.822,-0.816 -1.007,0 0,0"
           style="fill:#000000;fill-opacity:1;fill-rule:nonzero;stroke:none"
           id="path3382" />
      </g>
    </g>
  </g>
</svg>
