<?xml version="1.0" encoding="UTF-8" standalone="no"?>
<!-- Created with Inkscape (http://www.inkscape.org/) -->

<svg
   version="1.1"
   id="svg2"
   width="328.26175"
   height="305.55423"
   viewBox="0 0 328.26175 305.55423"
   sodipodi:docname="officeCat.svg"
   inkscape:version="1.2 (dc2aedaf03, 2022-05-15)"
   xmlns:inkscape="http://www.inkscape.org/namespaces/inkscape"
   xmlns:sodipodi="http://sodipodi.sourceforge.net/DTD/sodipodi-0.dtd"
   xmlns="http://www.w3.org/2000/svg"
   xmlns:svg="http://www.w3.org/2000/svg">
  <defs
     id="defs6">
    <clipPath
       clipPathUnits="userSpaceOnUse"
       id="clipPath18">
      <path
         d="M 0,500 H 750 V 0 H 0 Z"
         id="path16" />
    </clipPath>
    <clipPath
       clipPathUnits="userSpaceOnUse"
       id="clipPath824">
      <path
         d="m 406.517,384.592 h 28.958 v 39.141 h -28.958 z"
         id="path822" />
    </clipPath>
    <clipPath
       clipPathUnits="userSpaceOnUse"
       id="clipPath936">
      <path
         d="M 0,500 H 750 V 0 H 0 Z"
         id="path934" />
    </clipPath>
  </defs>
  <sodipodi:namedview
     id="namedview4"
     pagecolor="#ffffff"
     bordercolor="#999999"
     borderopacity="1"
     inkscape:showpageshadow="0"
     inkscape:pageopacity="0"
     inkscape:pagecheckerboard="0"
     inkscape:deskcolor="#d1d1d1"
     showgrid="false"
     inkscape:zoom="1.3395"
     inkscape:cx="354.98321"
     inkscape:cy="302.72491"
     inkscape:window-width="3200"
     inkscape:window-height="1771"
     inkscape:window-x="2391"
     inkscape:window-y="1341"
     inkscape:window-maximized="1"
     inkscape:current-layer="g14">
    <inkscape:page
       x="0"
       y="0"
       id="page8"
       width="328.26175"
       height="305.55423" />
  </sodipodi:namedview>
  <g
     id="g10"
     inkscape:groupmode="layer"
     inkscape:label="Page 1"
     transform="matrix(1.3333333,0,0,-1.3333333,-93.705907,634.85822)">
    <g
       id="g12">
      <g
         id="g14"
         clip-path="url(#clipPath18)">
        <g
           id="g20"
           transform="translate(120.7246,258.4312)">
          <path
             d="m 0,0 c -1.705,0.656 -3.395,1.357 -5.067,2.106 -19.419,8.688 -36.436,24.496 -42.683,44.832 -5.838,19.008 -1.715,40.091 7.782,57.561 5.165,9.5 11.922,17.624 18.969,25.75 5.516,6.361 17.472,7.857 25.242,11.144 19.733,8.346 38.223,19.633 54.632,33.413 11.36,9.542 21.756,20.277 33.891,28.812 12.134,8.535 26.546,14.873 41.357,14.017 21.879,-1.263 40.377,-18.256 49.688,-38.097 5.301,-11.297 8.181,-23.542 9.908,-35.854 0.872,-6.216 1.45,-12.47 1.917,-18.728 0.391,-5.252 -0.327,-9.858 -0.476,-15.022 C 194.561,89.04 189.617,68.698 179.385,50.368 170.357,34.193 157.517,20.082 141.684,10.361 116.768,-4.936 86.543,-9.136 57.306,-9 37.865,-8.91 18.084,-6.965 0,0"
             style="fill:#cdc7ff;fill-opacity:1;fill-rule:nonzero;stroke:none"
             id="path22" />
        </g>
        <path
           d="m 157.879,363.913 h -53.62 v 71.723 h 53.62 z"
           style="fill:#09254c;fill-opacity:1;fill-rule:nonzero;stroke:none"
           id="path24" />
        <path
           d="m 154.707,367.573 h -22.005 v 30.08 h 22.005 z"
           style="fill:#ffffff;fill-opacity:1;fill-rule:nonzero;stroke:none"
           id="path26" />
        <path
           d="m 129.437,367.573 h -22.005 v 30.08 h 22.005 z"
           style="fill:#ffffff;fill-opacity:1;fill-rule:nonzero;stroke:none"
           id="path28" />
        <path
           d="m 154.707,401.896 h -22.005 v 30.08 h 22.005 z"
           style="fill:#ffffff;fill-opacity:1;fill-rule:nonzero;stroke:none"
           id="path30" />
        <path
           d="m 129.437,401.896 h -22.005 v 30.08 h 22.005 z"
           style="fill:#ffffff;fill-opacity:1;fill-rule:nonzero;stroke:none"
           id="path32" />
        <path
           d="m 223.814,363.913 h -53.62 v 71.723 h 53.62 z"
           style="fill:#09254c;fill-opacity:1;fill-rule:nonzero;stroke:none"
           id="path34" />
        <path
           d="m 220.642,367.573 h -22.005 v 30.08 h 22.005 z"
           style="fill:#ffffff;fill-opacity:1;fill-rule:nonzero;stroke:none"
           id="path36" />
        <path
           d="m 195.372,367.573 h -22.005 v 30.08 h 22.005 z"
           style="fill:#ffffff;fill-opacity:1;fill-rule:nonzero;stroke:none"
           id="path38" />
        <path
           d="m 220.642,401.896 h -22.005 v 30.08 h 22.005 z"
           style="fill:#ffffff;fill-opacity:1;fill-rule:nonzero;stroke:none"
           id="path40" />
        <path
           d="m 195.372,401.896 h -22.005 v 30.08 h 22.005 z"
           style="fill:#ffffff;fill-opacity:1;fill-rule:nonzero;stroke:none"
           id="path42" />
        <g
           id="g44"
           transform="translate(217.7168,298.0195)">
          <path
             d="m 0,0 h 48.597 c 1.992,0 3.607,1.615 3.607,3.607 v 1.002 c 0,1.993 -1.615,3.608 -3.607,3.608 H 0 c -1.992,0 -3.607,-1.615 -3.607,-3.608 V 3.607 C -3.607,1.615 -1.992,0 0,0"
             style="fill:#09254c;fill-opacity:1;fill-rule:nonzero;stroke:none"
             id="path46" />
        </g>
        <g
           id="g48"
           transform="translate(243.9844,340.4985)">
          <path
             d="m 0,0 h 23.292 c 3.8,0 6.88,3.08 6.88,6.88 v 15.851 c 0,3.799 -3.08,6.88 -6.88,6.88 H 0 c -3.8,0 -6.88,-3.081 -6.88,-6.88 V 6.88 C -6.88,3.08 -3.8,0 0,0"
             style="fill:#09254c;fill-opacity:1;fill-rule:nonzero;stroke:none"
             id="path50" />
        </g>
        <path
           d="m 239.666,255.208 h 4.7 v 45.069 h -4.7 z"
           style="fill:#09254c;fill-opacity:1;fill-rule:nonzero;stroke:none"
           id="path52" />
        <g
           id="g54"
           transform="translate(220.1943,255.2944)">
          <path
             d="m 0,0 h 43.642 v 0.511 c 0,2.033 -1.648,3.682 -3.682,3.682 H 3.682 C 1.648,4.193 0,2.544 0,0.511 Z"
             style="fill:#09254c;fill-opacity:1;fill-rule:nonzero;stroke:none"
             id="path56" />
        </g>
        <g
           id="g58"
           transform="translate(258.7134,252.4106)">
          <path
             d="m 0,0 c 0,-1.907 1.545,-3.453 3.452,-3.453 1.907,0 3.453,1.546 3.453,3.453 0,1.907 -1.546,3.452 -3.453,3.452 C 1.545,3.452 0,1.907 0,0"
             style="fill:#09254c;fill-opacity:1;fill-rule:nonzero;stroke:none"
             id="path60" />
        </g>
        <g
           id="g62"
           transform="translate(218.6001,252.4106)">
          <path
             d="m 0,0 c 0,-1.907 1.546,-3.453 3.453,-3.453 1.906,0 3.452,1.546 3.452,3.453 0,1.907 -1.546,3.452 -3.452,3.452 C 1.546,3.452 0,1.907 0,0"
             style="fill:#09254c;fill-opacity:1;fill-rule:nonzero;stroke:none"
             id="path64" />
        </g>
        <g
           id="g66"
           transform="translate(238.3999,252.4106)">
          <path
             d="m 0,0 c 0,-1.907 1.545,-3.453 3.452,-3.453 1.907,0 3.452,1.546 3.452,3.453 0,1.907 -1.545,3.452 -3.452,3.452 C 1.545,3.452 0,1.907 0,0"
             style="fill:#09254c;fill-opacity:1;fill-rule:nonzero;stroke:none"
             id="path68" />
        </g>
        <g
           id="g70"
           transform="translate(255.5361,345.2905)">
          <path
             d="m 0,0 c -0.247,-13.932 -0.494,-27.863 -0.741,-41.795 -0.046,-2.575 3.954,-2.575 4,0 C 3.506,-27.863 3.753,-13.932 4,0 4.046,2.575 0.046,2.575 0,0"
             style="fill:#09254c;fill-opacity:1;fill-rule:nonzero;stroke:none"
             id="path72" />
        </g>
        <g
           id="g74"
           transform="translate(201.6187,334.5381)">
          <path
             d="m 0,0 c 0,0 -1.566,-2.246 -2.103,-2.532 -0.536,-0.286 -0.895,-0.239 -0.895,-0.239 l 1.027,2.089 z"
             style="fill:#f5876e;fill-opacity:1;fill-rule:nonzero;stroke:none"
             id="path76" />
        </g>
        <g
           id="g78"
           transform="translate(201.8936,336.7837)">
          <path
             d="m 0,0 -4.753,-2.612 c 0,0 0.225,-0.328 0.823,-0.271 0.599,0.058 2.084,0.687 2.084,0.687 z"
             style="fill:#f5876e;fill-opacity:1;fill-rule:nonzero;stroke:none"
             id="path80" />
        </g>
        <g
           id="g82"
           transform="translate(211.2368,336.1812)">
          <path
             d="m 0,0 c 0,0 -8.088,1.377 -9.343,0.603 -1.255,-0.775 -4.278,-3.52 -4.628,-4.439 -0.349,-0.92 2.839,0.828 3.888,1.167 0.679,0.219 2.522,-0.319 3.435,-0.573 1.051,-0.293 1.986,-0.448 2.79,-0.519 1.833,-0.161 3.467,1.146 3.739,2.967 z"
             style="fill:#f5876e;fill-opacity:1;fill-rule:nonzero;stroke:none"
             id="path84" />
        </g>
        <g
           id="g86"
           transform="translate(208.3394,336.5547)">
          <path
             d="m 0,0 18.38,5.341 4.184,10.722 c 0.583,1.496 2.025,2.48 3.63,2.479 2.77,-0.001 4.654,-2.811 3.603,-5.373 L 24.588,0.472 22.502,-1.034 0.083,-3.941 Z"
             style="fill:#f5876e;fill-opacity:1;fill-rule:nonzero;stroke:none"
             id="path88" />
        </g>
        <g
           id="g90"
           transform="translate(241.0898,369.3276)">
          <path
             d="m 0,0 c 1.462,-0.403 2.394,-1.848 2.208,-3.354 -0.339,-2.737 -1.33,-7.593 -4.219,-13.597 l -4.025,-9.388 -8.118,4.037 7.142,18.652 c 0,0 1.048,5.296 7.012,3.65"
             style="fill:#ccaf45;fill-opacity:1;fill-rule:nonzero;stroke:none"
             id="path92" />
        </g>
        <g
           id="g94"
           transform="translate(243.5298,363.9785)">
          <path
             d="m 0,0 v 0 c 2.086,-0.109 3.848,1.888 3.937,4.46 l 0.53,15.372 -7.553,0.396 -0.53,-15.372 C -3.705,2.284 -2.085,0.109 0,0"
             style="fill:#ffb49b;fill-opacity:1;fill-rule:nonzero;stroke:none"
             id="path96" />
        </g>
        <g
           id="g98"
           transform="translate(239.9985,371.2891)">
          <path
             d="m 0,0 c 3.469,-0.045 6.78,4.538 7.336,8.829 l 0.223,1.714 -7.147,1.411 z"
             style="fill:#f5876e;fill-opacity:1;fill-rule:nonzero;stroke:none"
             id="path100" />
        </g>
        <g
           id="g102"
           transform="translate(238.1875,373.4233)">
          <path
             d="m 0,0 v 0 c 4.239,-0.154 10.114,4.765 10.268,9.004 l 0.417,8.356 c 0.169,3.872 -2.572,7.264 -6.393,7.911 -4.557,0.771 -8.759,-2.627 -8.958,-7.245 L -5.085,9.563 C -5.239,5.323 -1.854,0.067 0,0"
             style="fill:#ffb49b;fill-opacity:1;fill-rule:nonzero;stroke:none"
             id="path104" />
        </g>
        <g
           id="g106"
           transform="translate(247.5229,386.6816)">
          <path
             d="M 0,0 C -0.675,0.037 -1.198,0.814 -0.978,1.454 -2.684,2.066 -3.625,4.246 -2.9,5.908 -3.595,5.242 -4.95,5.585 -5.245,6.5 -6.01,5.855 -7.12,5.646 -8.068,5.967 -9.017,6.288 -9.77,7.129 -9.986,8.106 c 0.151,-0.541 -0.086,-1.167 -0.556,-1.473 -0.472,-0.306 -1.14,-0.269 -1.573,0.089 0.165,-0.617 -0.342,-1.319 -0.978,-1.358 -0.637,-0.038 -0.888,0.454 -0.799,1.086 -0.011,-2.57 -0.358,-4.994 -0.369,-7.564 l -1.002,5.47 c -0.736,0.844 -1.01,2.067 -0.705,3.145 0.304,1.077 1.178,1.976 2.247,2.31 -0.178,1.011 0.222,2.103 1.011,2.76 0.788,0.657 1.935,0.852 2.897,0.494 0.899,1.153 2.366,1.84 3.828,1.794 1.461,-0.046 2.882,-0.824 3.708,-2.031 2.538,0.375 5.18,-1.644 5.485,-4.192 C 4.25,8.557 5.213,7.832 5.578,6.854 5.942,5.875 5.688,4.696 4.954,3.955 5.625,2.962 5.779,1.661 5.431,0.521 5.34,0.226 5.216,-0.055 5.055,-0.319 4.879,-0.607 4.86,-0.616 4.981,-0.959 5.196,-1.564 5.302,-2.194 5.254,-2.838 5.219,-3.314 5.1,-3.795 4.825,-4.186 4.55,-4.576 4.101,-4.863 3.623,-4.858 3.689,-5.377 3.491,-5.923 3.107,-6.278 2.724,-6.633 2.164,-6.789 1.652,-6.682 1.72,-7.089 1.592,-7.524 1.316,-7.831 1.04,-8.138 0.62,-8.31 0.208,-8.285 c 0.105,1.586 0.211,3.172 0.318,4.758 0.091,1.36 -0.047,2.961 0.52,4.216 C 0.867,0.292 0.453,-0.028 0,0"
             style="fill:#543232;fill-opacity:1;fill-rule:nonzero;stroke:none"
             id="path108" />
        </g>
        <g
           id="g110"
           transform="translate(235.7388,384.4517)">
          <path
             d="m 0,0 c 0.03,0.452 0.06,0.903 0.089,1.355 0.063,0.952 -1.418,0.948 -1.48,0 C -1.421,0.903 -1.451,0.452 -1.48,0 -1.543,-0.951 -0.062,-0.947 0,0"
             style="fill:#000000;fill-opacity:1;fill-rule:nonzero;stroke:none"
             id="path112" />
        </g>
        <g
           id="g114"
           transform="translate(237.5732,380.9238)">
          <path
             d="m 0,0 c -0.466,-0.064 -0.947,-0.021 -1.395,0.125 -0.125,0.04 -0.263,0.104 -0.303,0.229 -0.058,0.176 0.108,0.338 0.243,0.465 0.568,0.531 0.877,1.326 0.816,2.099"
             style="fill:none;stroke:#000000;stroke-width:0.74;stroke-linecap:round;stroke-linejoin:miter;stroke-miterlimit:10;stroke-dasharray:none;stroke-opacity:1"
             id="path116" />
        </g>
        <g
           id="g118"
           transform="translate(239.502,378.8638)">
          <path
             d="M 0,0 C -0.763,-0.583 -1.714,-0.913 -2.674,-0.927"
             style="fill:none;stroke:#000000;stroke-width:0.74;stroke-linecap:round;stroke-linejoin:miter;stroke-miterlimit:10;stroke-dasharray:none;stroke-opacity:1"
             id="path120" />
        </g>
        <g
           id="g122"
           transform="translate(241.8911,384.0469)">
          <path
             d="m 0,0 c 0.03,0.452 0.06,0.904 0.089,1.355 0.063,0.952 -1.418,0.948 -1.48,0 C -1.421,0.904 -1.451,0.452 -1.48,0 -1.543,-0.951 -0.062,-0.947 0,0"
             style="fill:#000000;fill-opacity:1;fill-rule:nonzero;stroke:none"
             id="path124" />
        </g>
        <g
           id="g126"
           transform="translate(233.8853,388.5518)">
          <path
             d="M 0,0 C 0.456,0.317 1.081,0.374 1.585,0.144"
             style="fill:none;stroke:#000000;stroke-width:0.74;stroke-linecap:round;stroke-linejoin:miter;stroke-miterlimit:10;stroke-dasharray:none;stroke-opacity:1"
             id="path128" />
        </g>
        <g
           id="g130"
           transform="translate(241.1382,388.4746)">
          <path
             d="M 0,0 C 0.577,0.185 1.232,0.107 1.751,-0.206"
             style="fill:none;stroke:#000000;stroke-width:0.74;stroke-linecap:round;stroke-linejoin:miter;stroke-miterlimit:10;stroke-dasharray:none;stroke-opacity:1"
             id="path132" />
        </g>
        <g
           id="g134"
           transform="translate(250.4814,383.98)">
          <path
             d="m 0,0 c -0.08,-1.218 -1.086,-2.18 -2.378,-2.39 -0.394,-0.064 -0.74,0.277 -0.723,0.675 l 0.161,3.814 c 0.014,0.337 0.289,0.612 0.626,0.627 C -0.485,2.802 0.086,1.312 0,0"
             style="fill:#f5876e;fill-opacity:1;fill-rule:nonzero;stroke:none"
             id="path136" />
        </g>
        <g
           id="g138"
           transform="translate(179.8799,254.1162)">
          <path
             d="m 0,0 c 0.26,0.089 0.52,0.181 0.78,0.274 2.325,0.831 3.734,2.764 5.624,4.513 0.833,0.771 1.705,2.386 2.402,3.896 l 11.029,46.941 1.125,1.891 c 0.197,0.33 0.512,0.574 0.881,0.682 L 45.657,65.135 64.688,54.68 29.527,46.084 27.313,42.408 24.946,29.489 14.487,9.404 C 13.986,8.042 13.459,6.577 13.161,5.647 12.754,4.385 13.118,2.916 13.452,1.793 c 0.181,-0.61 0.362,-1.235 0.375,-1.884 0.039,-1.842 -2.54,-2.106 -5.501,-2.044 -2.96,0.063 -2.112,-0.605 -6.207,-1.05 -4.095,-0.446 -5.636,0.776 -5.89,1.343 C -3.998,-1.339 -2.064,-0.715 0,0"
             style="fill:#f5876e;fill-opacity:1;fill-rule:nonzero;stroke:none"
             id="path140" />
        </g>
        <g
           id="g142"
           transform="translate(251.1929,328.8208)">
          <path
             d="m 0,0 -0.12,-15.384 c -0.031,-3.934 -2.906,-7.267 -6.793,-7.875 l -25.931,-4.055 -10.532,12.695 20.789,8.229 4.207,11.192 z"
             style="fill:#ffffff;fill-opacity:1;fill-rule:nonzero;stroke:none"
             id="path144" />
        </g>
        <g
           id="g146"
           transform="translate(181.6826,255.3022)">
          <path
             d="m 0,0 0.864,-5.12 -4.155,-0.19 0.413,4.944 z"
             style="fill:#c72626;fill-opacity:1;fill-rule:nonzero;stroke:none"
             id="path148" />
        </g>
        <g
           id="g150"
           transform="translate(195.7451,250.7075)">
          <path
             d="M 0,0 -19.505,0.161 -19.589,-1.123 0.192,-1.301 Z"
             style="fill:#c72626;fill-opacity:1;fill-rule:nonzero;stroke:none"
             id="path152" />
        </g>
        <g
           id="g154"
           transform="translate(213.4707,253.5967)">
          <path
             d="m 0,0 c 0.17,0.215 0.34,0.434 0.509,0.652 1.507,1.955 1.649,4.343 2.295,6.836 0.284,1.098 0.146,2.929 -0.083,4.575 l -15.537,35.169 c -0.202,0.458 -0.309,0.952 -0.314,1.452 l 0.008,1.817 c 0.008,1.784 1.07,3.39 2.71,4.092 6.742,2.884 23.783,9.833 23.783,9.833 L 32.632,54.402 -0.318,45.741 4.266,35.854 7.112,15.74 C 7.427,14.322 7.775,12.805 8.025,11.862 8.365,10.58 9.464,9.539 10.353,8.775 10.834,8.359 11.324,7.931 11.686,7.392 12.713,5.863 10.686,4.248 8.16,2.701 5.635,1.154 6.709,1.051 3.504,-1.536 0.298,-4.123 -1.659,-3.927 -2.179,-3.587 -2.641,-3.286 -1.351,-1.716 0,0"
             style="fill:#ffa587;fill-opacity:1;fill-rule:nonzero;stroke:none"
             id="path156" />
        </g>
        <g
           id="g158"
           transform="translate(233.3003,320.1631)">
          <path
             d="m 0,0 -18.013,-6.095 7.274,-12.542 23.592,4.035 2.255,7.085 -9.42,8.126 z"
             style="fill:#ffffff;fill-opacity:1;fill-rule:nonzero;stroke:none"
             id="path160" />
        </g>
        <g
           id="g162"
           transform="translate(236.46,320.5933)">
          <path
             d="M 0,0 C -1.039,-0.146 -3.023,-0.471 -3.023,-0.471 L -21.03,-6.647"
             style="fill:none;stroke:#000000;stroke-width:0.693;stroke-linecap:round;stroke-linejoin:miter;stroke-miterlimit:10;stroke-dasharray:none;stroke-opacity:1"
             id="path164" />
        </g>
        <g
           id="g166"
           transform="translate(214.0908,255.9238)">
          <path
             d="M 0,0 3.854,-3.478 0.714,-6.206 -2.03,-2.072 Z"
             style="fill:#c72626;fill-opacity:1;fill-rule:nonzero;stroke:none"
             id="path168" />
        </g>
        <g
           id="g170"
           transform="translate(227.9697,261.0469)">
          <path
             d="m 0,0 -15.396,-11.977 0.731,-1.058 15.623,12.134 z"
             style="fill:#c72626;fill-opacity:1;fill-rule:nonzero;stroke:none"
             id="path172" />
        </g>
        <g
           id="g174"
           transform="translate(242.8066,371.2187)">
          <path
             d="m 0,0 c -1.491,-0.007 -3.071,-0.143 -4.282,-1.014 -1.538,-1.106 -2.106,-3.127 -2.283,-5.014 -0.165,-1.772 -0.066,-3.618 0.68,-5.234 0.746,-1.616 2.23,-2.966 3.996,-3.195 1.591,-0.205 3.169,0.499 4.484,1.419 2.956,2.071 5.722,5.897 5.604,9.658 C 8.076,0.531 2.866,0.014 0,0"
             style="fill:#ffb49b;fill-opacity:1;fill-rule:nonzero;stroke:none"
             id="path176" />
        </g>
        <g
           id="g178"
           transform="translate(227.7104,323.2109)">
          <path
             d="m 0,0 c 1.481,5.425 2.642,12.42 3.893,17.88 0.644,2.81 1.225,5.638 1.71,8.495 0.54,3.183 0.871,6.351 0.9,9.621 0.018,2.087 -0.039,4.143 0.537,6.229 0.576,2.086 1.785,3.757 3.691,4.853 0.302,-3.205 1.063,-6.211 2.261,-9.207 1.728,2.266 3.241,4.082 5.314,6.227 1.017,1.052 2.445,2.869 3.936,3.596 1.09,-0.477 2.121,-1.153 3.04,-1.863 0.92,-0.71 1.824,-1.153 2.512,-2.121 0.688,-0.968 1.106,-2.096 1.287,-3.315 0.181,-1.22 -0.056,-2.437 -0.187,-3.687 C 28.578,33.684 28.32,30.483 27.979,27.474 26.84,17.43 24.988,7.563 23.633,-2.433 15.285,-2.868 7.564,-3.231 0,0"
             style="fill:#ffe173;fill-opacity:1;fill-rule:nonzero;stroke:none"
             id="path180" />
        </g>
        <g
           id="g182"
           transform="translate(189.8071,331.1782)">
          <path
             d="m 0,0 v -0.837 c 0,-0.185 0.149,-0.334 0.333,-0.334 h 3.582 c 0.184,0 0.333,0.149 0.333,0.334 V 0 Z"
             style="fill:#cfc7c7;fill-opacity:1;fill-rule:nonzero;stroke:none"
             id="path184" />
        </g>
        <g
           id="g186"
           transform="translate(195.2026,335.5679)">
          <path
             d="m 0,0 h 1.454 c 0.949,0 1.719,-0.769 1.719,-1.718 0,-0.949 -0.77,-1.719 -1.719,-1.719 H 0"
             style="fill:none;stroke:#000000;stroke-width:0.7;stroke-linecap:round;stroke-linejoin:round;stroke-miterlimit:10;stroke-dasharray:none;stroke-opacity:1"
             id="path188" />
        </g>
        <g
           id="g190"
           transform="translate(189.8325,330.832)">
          <path
             d="m 0,0 h 4.197 c 1.1,0.697 1.834,1.917 1.834,3.315 V 5.728 H -1.834 V 3.315 C -1.834,1.917 -1.099,0.697 0,0"
             style="fill:#ffffff;fill-opacity:1;fill-rule:nonzero;stroke:none"
             id="path192" />
        </g>
        <g
           id="g194"
           transform="translate(190.1099,337.9443)">
          <path
             d="m 0,0 c -0.697,0.577 -0.776,1.642 -0.515,2.508 0.261,0.867 0.79,1.626 1.142,2.459 0.625,1.479 0.665,3.197 0.108,4.703"
             style="fill:none;stroke:#ffffff;stroke-width:1;stroke-linecap:round;stroke-linejoin:round;stroke-miterlimit:10;stroke-dasharray:none;stroke-opacity:1"
             id="path196" />
        </g>
        <g
           id="g198"
           transform="translate(247.6816,317.8384)">
          <path
             d="M 0,0 C -2.107,0 -4.211,0.558 -6.042,1.603"
             style="fill:none;stroke:#000000;stroke-width:0.693;stroke-linecap:round;stroke-linejoin:miter;stroke-miterlimit:10;stroke-dasharray:none;stroke-opacity:1"
             id="path200" />
        </g>
        <path
           d="m 122.117,322.878 h 158.619 v -5.553 H 122.117 Z"
           style="fill:#3b2a2a;fill-opacity:1;fill-rule:nonzero;stroke:none"
           id="path202" />
        <path
           d="m 120.214,325.074 h 4.94 v -78.096 h -4.94 z"
           style="fill:#513b3b;fill-opacity:1;fill-rule:nonzero;stroke:none"
           id="path204" />
        <path
           d="m 277.534,325.074 h 4.94 v -78.096 h -4.94 z"
           style="fill:#513b3b;fill-opacity:1;fill-rule:nonzero;stroke:none"
           id="path206" />
        <path
           d="M 116.02,322.878 H 294 v 7.118 H 116.02 Z"
           style="fill:#513b3b;fill-opacity:1;fill-rule:nonzero;stroke:none"
           id="path208" />
        <path
           d="m 110.287,322.878 h 158.619 v -5.553 H 110.287 Z"
           style="fill:#604545;fill-opacity:1;fill-rule:nonzero;stroke:none"
           id="path210" />
        <g
           id="g212"
           transform="translate(258.7637,320.1475)">
          <path
             d="M 0,0 H -103.977"
             style="fill:none;stroke:#000000;stroke-width:0.693;stroke-linecap:round;stroke-linejoin:miter;stroke-miterlimit:10;stroke-dasharray:none;stroke-opacity:1"
             id="path214" />
        </g>
        <g
           id="g216"
           transform="translate(160.2588,321.6138)">
          <path
             d="M 0,0 H -27.533"
             style="fill:none;stroke:#000000;stroke-width:0.693;stroke-linecap:round;stroke-linejoin:miter;stroke-miterlimit:10;stroke-dasharray:none;stroke-opacity:1"
             id="path218" />
        </g>
        <path
           d="m 108.384,325.074 h 4.94 v -78.096 h -4.94 z"
           style="fill:#866161;fill-opacity:1;fill-rule:nonzero;stroke:none"
           id="path220" />
        <path
           d="m 265.704,325.074 h 4.94 v -78.096 h -4.94 z"
           style="fill:#866161;fill-opacity:1;fill-rule:nonzero;stroke:none"
           id="path222" />
        <path
           d="m 100.615,322.878 h 185.13 v 7.118 h -185.13 z"
           style="fill:#866161;fill-opacity:1;fill-rule:nonzero;stroke:none"
           id="path224" />
        <g
           id="g226"
           transform="translate(122.5449,320.4668)">
          <path
             d="m 0,0 c -0.267,-0.197 -0.234,-0.676 0.057,-0.835 0.291,-0.159 0.712,0.071 0.734,0.402 0.022,0.331 -0.363,0.616 -0.673,0.498"
             style="fill:none;stroke:#000000;stroke-width:0.693;stroke-linecap:round;stroke-linejoin:miter;stroke-miterlimit:10;stroke-dasharray:none;stroke-opacity:1"
             id="path228" />
        </g>
        <g
           id="g230"
           transform="translate(122.832,320.022)">
          <path
             d="m 0,0 c 0.284,-3.144 0.578,-6.342 1.577,-9.247 1,-2.905 2.826,-5.528 5.249,-6.397"
             style="fill:none;stroke:#000000;stroke-width:0.53;stroke-linecap:round;stroke-linejoin:miter;stroke-miterlimit:10;stroke-dasharray:none;stroke-opacity:1"
             id="path232" />
        </g>
        <g
           id="g234"
           transform="translate(133.873,303.125)">
          <path
             d="m 0,0 c 0,-1.463 -1.186,-2.649 -2.649,-2.649 -1.463,0 -2.649,1.186 -2.649,2.649 0,1.463 1.186,2.649 2.649,2.649 C -1.186,2.649 0,1.463 0,0"
             style="fill:#ffe173;fill-opacity:1;fill-rule:nonzero;stroke:none"
             id="path236" />
        </g>
        <g
           id="g238"
           transform="translate(137.9141,340.2432)">
          <path
             d="m 0,0 46.73,0.001 c 1.482,0 2.618,1.317 2.4,2.783 l -4.574,30.813 c -0.177,1.19 -1.198,2.07 -2.4,2.07 L -5.893,35.666 c -1.523,0 -2.669,-1.387 -2.383,-2.882 L -2.383,1.971 C -2.165,0.827 -1.165,0 0,0"
             style="fill:#3d444f;fill-opacity:1;fill-rule:nonzero;stroke:none"
             id="path240" />
        </g>
        <g
           id="g242"
           transform="translate(155.0874,331.5923)">
          <path
             d="M 0,0 11.109,-0.101 7.956,23.383 -3.153,23.484 Z"
             style="fill:#09254c;fill-opacity:1;fill-rule:nonzero;stroke:none"
             id="path244" />
        </g>
        <g
           id="g246"
           transform="translate(173.2061,332.6104)">
          <path
             d="m 0,0 h -24.305 l -0.274,-2.245 24.306,10e-4 z"
             style="fill:#09254c;fill-opacity:1;fill-rule:nonzero;stroke:none"
             id="path248" />
        </g>
        <g
           id="g250"
           transform="translate(183.8369,344.5605)">
          <path
             d="M 0,0 -4.665,28.932 -50.86,29.011"
             style="fill:none;stroke:#000000;stroke-width:0.693;stroke-linecap:round;stroke-linejoin:miter;stroke-miterlimit:10;stroke-dasharray:none;stroke-opacity:1"
             id="path252" />
        </g>
        <g
           id="g254"
           transform="translate(163.0435,354.9751)">
          <path
             d="M 0,0 2.661,-22.312"
             style="fill:none;stroke:#000000;stroke-width:0.693;stroke-linecap:round;stroke-linejoin:miter;stroke-miterlimit:10;stroke-dasharray:none;stroke-opacity:1"
             id="path256" />
        </g>
        <g
           id="g258"
           transform="translate(236.7896,330.002)">
          <path
             d="m 0,0 h -27.377 v 0.229 c 0,0.911 0.737,1.648 1.648,1.648 H -1.648 C -0.738,1.877 0,1.14 0,0.229 Z"
             style="fill:#1e3865;fill-opacity:1;fill-rule:nonzero;stroke:none"
             id="path260" />
        </g>
        <g
           id="g262"
           transform="translate(198.3364,330.0234)">
          <path
             d="m 0,0 h 8.143 v 0.719 c 0,1.974 -1.601,3.574 -3.575,3.574 H 3.575 C 1.601,4.293 0,2.693 0,0.719 Z"
             style="fill:#1e3865;fill-opacity:1;fill-rule:nonzero;stroke:none"
             id="path264" />
        </g>
        <g
           id="g266"
           transform="translate(153.0752,413.8281)">
          <path
             d="m 0,0 c 0,0 5.149,31.793 6.395,39.317 0.128,0.774 1.203,0.862 1.459,0.12 2.552,-7.435 10.684,-39.69 10.684,-39.69"
             style="fill:none;stroke:#000000;stroke-width:0.602;stroke-linecap:round;stroke-linejoin:miter;stroke-miterlimit:10;stroke-dasharray:none;stroke-opacity:1"
             id="path268" />
        </g>
        <g
           id="g270"
           transform="translate(149.4395,413.6221)">
          <path
             d="m 0,0 c -0.04,-0.399 -0.061,-0.805 -0.061,-1.215 0,-6.709 5.438,-12.147 12.147,-12.147 6.709,0 12.148,5.438 12.148,12.147 0,0.41 -0.022,0.816 -0.061,1.215 z"
             style="fill:#604545;fill-opacity:1;fill-rule:nonzero;stroke:none"
             id="path272" />
        </g>
        <g
           id="g274"
           transform="translate(161.6602,413.75)">
          <path
             d="M 0,0 C 0,0 -0.298,0.493 -0.729,1.433 -0.95,1.905 -1.193,2.489 -1.398,3.177 -1.61,3.866 -1.86,4.672 -1.996,5.56 -2.158,6.454 -2.29,7.447 -2.301,8.506 c -0.054,1.072 0.04,2.195 0.185,3.384 0.353,2.35 1.151,4.887 2.554,7.241 1.424,2.342 3.292,4.235 5.204,5.646 0.983,0.685 1.931,1.294 2.904,1.747 0.941,0.486 1.88,0.834 2.746,1.11 0.849,0.296 1.678,0.451 2.386,0.586 0.704,0.141 1.334,0.2 1.854,0.225 1.032,0.06 1.608,0.027 1.608,0.027 0,0 -0.236,-0.559 -0.67,-1.449 -0.22,-0.44 -0.483,-0.969 -0.76,-1.589 -0.281,-0.616 -0.623,-1.256 -0.943,-2 C 14.43,22.712 14.062,21.957 13.701,21.143 13.31,20.362 12.952,19.503 12.527,18.677 11.725,16.974 10.837,15.241 9.778,13.508 8.742,11.762 7.626,10.166 6.497,8.66 5.965,7.898 5.374,7.18 4.867,6.469 4.317,5.77 3.822,5.09 3.341,4.455 2.834,3.823 2.428,3.222 2.016,2.686 1.598,2.15 1.252,1.67 0.967,1.27 0.383,0.469 0,0 0,0"
             style="fill:#83dec1;fill-opacity:1;fill-rule:nonzero;stroke:none"
             id="path276" />
        </g>
        <g
           id="g278"
           transform="translate(169.6763,434.2246)">
          <path
             d="M 0,0 C -4.683,-5.793 -7.602,-13.03 -8.016,-20.475"
             style="fill:none;stroke:#000000;stroke-width:0.602;stroke-linecap:round;stroke-linejoin:miter;stroke-miterlimit:10;stroke-dasharray:none;stroke-opacity:1"
             id="path280" />
        </g>
        <g
           id="g282"
           transform="translate(161.417,413.3223)">
          <path
             d="M 0,0 C 0,0 -0.478,0.171 -1.226,0.486 -2,0.815 -3.05,1.26 -4.171,1.735 c -1.149,0.51 -2.438,1.06 -3.681,1.71 -1.264,0.638 -2.488,1.368 -3.621,2.306 -1.143,0.924 -2.103,1.978 -2.98,3.09 -0.883,1.089 -1.679,2.243 -2.406,3.268 -0.689,1.004 -1.334,1.945 -1.81,2.638 -0.457,0.671 -0.72,1.105 -0.72,1.105 0,0 0.429,0.227 1.221,0.523 0.794,0.306 1.95,0.624 3.387,0.773 1.439,0.156 3.144,0.088 4.941,-0.348 1.78,-0.453 3.643,-1.291 5.268,-2.609 1.614,-1.33 2.805,-2.99 3.603,-4.645 C -0.184,7.872 0.221,6.214 0.354,4.774 0.494,3.335 0.411,2.14 0.27,1.3 0.138,0.465 0,0 0,0"
             style="fill:#83dec1;fill-opacity:1;fill-rule:nonzero;stroke:none"
             id="path284" />
        </g>
        <g
           id="g286"
           transform="translate(145.4106,428.0371)">
          <path
             d="M 0,0 C 6.862,-2.776 12.693,-8.087 16.006,-14.715"
             style="fill:none;stroke:#000000;stroke-width:0.602;stroke-linecap:round;stroke-linejoin:miter;stroke-miterlimit:10;stroke-dasharray:none;stroke-opacity:1"
             id="path288" />
        </g>
        <g
           id="g290"
           transform="translate(162.1016,414.126)">
          <path
             d="m 0,0 c 0,0 0.258,0.521 0.806,1.388 0.542,0.874 1.405,2.052 2.628,3.338 1.218,1.292 2.82,2.646 4.776,3.84 1.959,1.172 4.279,2.168 6.834,2.697 2.559,0.514 5.083,0.504 7.345,0.193 2.267,-0.333 4.272,-0.953 5.898,-1.664 1.628,-0.706 2.883,-1.452 3.725,-2.044 0.842,-0.583 1.284,-0.962 1.284,-0.962 0,0 -0.52,-0.299 -1.418,-0.736 C 30.982,5.621 29.712,5 28.22,4.341 26.725,3.689 25.01,2.947 23.163,2.29 21.314,1.61 19.334,1.003 17.221,0.582 15.111,0.143 13.052,-0.074 11.084,-0.171 9.127,-0.29 7.259,-0.278 5.628,-0.263 3.997,-0.24 2.585,-0.167 1.592,-0.123 0.596,-0.071 0,0 0,0"
             style="fill:#83dec1;fill-opacity:1;fill-rule:nonzero;stroke:none"
             id="path292" />
        </g>
        <g
           id="g294"
           transform="translate(186.3174,421.1064)">
          <path
             d="M 0,0 C -8.455,-0.5 -16.801,-2.882 -24.216,-6.98"
             style="fill:none;stroke:#000000;stroke-width:0.602;stroke-linecap:round;stroke-linejoin:miter;stroke-miterlimit:10;stroke-dasharray:none;stroke-opacity:1"
             id="path296" />
        </g>
        <g
           id="g298"
           transform="translate(161.8115,413.6401)">
          <path
             d="m 0,0 c 0,0 -0.43,-0.283 -1.101,-0.723 -0.672,-0.443 -1.573,-1.1 -2.494,-1.86 -0.928,-0.755 -1.868,-1.642 -2.755,-2.498 -0.895,-0.858 -1.722,-1.691 -2.635,-2.393 -0.9,-0.719 -1.906,-1.323 -2.954,-1.987 -1.043,-0.656 -2.128,-1.357 -3.084,-2.077 -0.958,-0.713 -1.811,-1.43 -2.403,-1.977 -0.588,-0.546 -0.965,-0.896 -0.965,-0.896 0,0 -0.313,0.382 -0.719,1.149 -0.407,0.766 -0.871,1.937 -1.076,3.474 -0.208,1.53 -0.114,3.422 0.567,5.389 0.67,1.958 1.97,3.976 3.91,5.506 1.95,1.518 4.22,2.297 6.281,2.48 2.073,0.191 3.932,-0.171 5.367,-0.739 C -2.617,2.282 -1.59,1.552 -0.943,0.973 -0.296,0.395 0,0 0,0"
             style="fill:#83dec1;fill-opacity:1;fill-rule:nonzero;stroke:none"
             id="path300" />
        </g>
        <g
           id="g302"
           transform="translate(161.8115,413.6401)">
          <path
             d="m 0,0 c -4.317,0.696 -8.905,-0.486 -12.347,-3.184 -1.399,-1.096 -2.601,-2.436 -3.558,-3.933"
             style="fill:none;stroke:#000000;stroke-width:0.602;stroke-linecap:round;stroke-linejoin:miter;stroke-miterlimit:10;stroke-dasharray:none;stroke-opacity:1"
             id="path304" />
        </g>
        <g
           id="g306"
           transform="translate(160.6084,413.7832)">
          <path
             d="m 0,0 c 0,0 0.105,0.075 0.335,0.191 0.229,0.108 0.592,0.25 1.102,0.319 1.008,0.144 2.659,-0.066 4.304,-1.26 1.628,-1.135 2.954,-3.055 3.89,-4.671 0.973,-1.67 1.774,-3.622 2.172,-5.762 0.807,-4.296 -0.201,-8.385 -1.445,-11.18 -0.616,-1.407 -1.284,-2.514 -1.791,-3.268 -0.513,-0.753 -0.855,-1.158 -0.855,-1.158 0,0 -0.339,0.418 -0.848,1.151 -0.516,0.733 -1.21,1.777 -1.951,3.024 -1.475,2.514 -3.136,5.759 -3.828,9.438 -0.344,1.847 -0.412,3.663 -0.343,5.389 0.067,1.778 0.388,2.912 0.49,3.975 0.141,1.014 -0.075,2.055 -0.439,2.745 C 0.616,-0.718 0.411,-0.45 0.255,-0.271 0.092,-0.097 0,0 0,0"
             style="fill:#83dec1;fill-opacity:1;fill-rule:nonzero;stroke:none"
             id="path308" />
        </g>
        <g
           id="g310"
           transform="translate(168.1426,393.0776)">
          <path
             d="m 0,0 c -0.341,4.885 -1.16,9.738 -2.443,14.464 -0.375,1.383 -0.802,2.781 -1.608,3.966 -0.806,1.185 -2.056,2.145 -3.483,2.276"
             style="fill:none;stroke:#000000;stroke-width:0.602;stroke-linecap:round;stroke-linejoin:miter;stroke-miterlimit:10;stroke-dasharray:none;stroke-opacity:1"
             id="path312" />
        </g>
        <g
           id="g314"
           transform="translate(226.8906,332.54)">
          <path
             d="m 0,0 c 0,0 -1.678,-2.164 -2.229,-2.423 -0.549,-0.258 -0.905,-0.194 -0.905,-0.194 l 1.131,2.035 z"
             style="fill:#ffa587;fill-opacity:1;fill-rule:nonzero;stroke:none"
             id="path316" />
        </g>
        <g
           id="g318"
           transform="translate(227.2783,334.769)">
          <path
             d="m 0,0 -4.879,-2.369 c 0,0 0.208,-0.339 0.808,-0.312 0.601,0.027 2.116,0.581 2.116,0.581 z"
             style="fill:#ffa587;fill-opacity:1;fill-rule:nonzero;stroke:none"
             id="path320" />
        </g>
        <g
           id="g322"
           transform="translate(236.5786,333.6968)">
          <path
             d="m 0,0 c 0,0 -8.008,1.783 -9.3,1.072 -1.293,-0.71 -4.451,-3.299 -4.846,-4.199 -0.396,-0.901 2.876,0.684 3.941,0.969 0.689,0.185 2.503,-0.446 3.402,-0.745 1.036,-0.346 1.962,-0.547 2.76,-0.659 1.823,-0.254 3.522,0.97 3.885,2.774 z"
             style="fill:#ffb49b;fill-opacity:1;fill-rule:nonzero;stroke:none"
             id="path324" />
        </g>
        <g
           id="g326"
           transform="translate(233.7041,334.2153)">
          <path
             d="M 0,0 20.395,5.446 17.15,24.219 23.987,25.725 27.811,0.58 25.725,-0.927 -0.116,-3.94 Z"
             style="fill:#ffb49b;fill-opacity:1;fill-rule:nonzero;stroke:none"
             id="path328" />
        </g>
        <g
           id="g330"
           transform="translate(252.9902,366.4746)">
          <path
             d="M 0,0 C 1.46,0.413 3.005,-0.341 3.626,-1.725 4.754,-4.241 6.423,-8.909 7.062,-15.54 l 1.004,-8.91 -9.035,-0.753 -3.137,18.448 c 0,0 -1.848,5.072 4.106,6.755"
             style="fill:#ffe173;fill-opacity:1;fill-rule:nonzero;stroke:none"
             id="path332" />
        </g>
        <g
           id="g334"
           transform="translate(251.9946,341.3477)">
          <path
             d="M 0,0 C -1.015,6.08 -2.031,12.16 -3.046,18.24"
             style="fill:none;stroke:#000000;stroke-width:0.693;stroke-linecap:round;stroke-linejoin:miter;stroke-miterlimit:10;stroke-dasharray:none;stroke-opacity:1"
             id="path336" />
        </g>
        <g
           id="g338"
           transform="translate(249.7427,354.4521)">
          <path
             d="M 0,0 C -0.617,0.899 -1.234,1.799 -1.852,2.698"
             style="fill:none;stroke:#000000;stroke-width:0.693;stroke-linecap:round;stroke-linejoin:miter;stroke-miterlimit:10;stroke-dasharray:none;stroke-opacity:1"
             id="path340" />
        </g>
        <g
           id="g342"
           transform="translate(106.4102,333.5591)">
          <path
             d="m 0,0 c -2.925,6.152 -1.409,14.118 3.572,18.764 0.568,0.53 1.198,1.032 1.946,1.242 0.748,0.211 1.64,0.069 2.143,-0.524 C 8.574,18.408 7.744,16.793 6.939,15.635 4.952,12.775 3.112,9.696 2.511,6.266 1.894,2.743 2.833,-0.752 5.391,-3.266 3.333,-5.542 0.78,-1.641 0,0"
             style="fill:#ffffff;fill-opacity:1;fill-rule:nonzero;stroke:none"
             id="path344" />
        </g>
        <g
           id="g346"
           transform="translate(106.0161,334.4902)">
          <path
             d="m 0,0 c 0.123,-0.313 0.249,-0.626 0.394,-0.931 0.218,-0.459 0.579,-1.095 1.025,-1.724 0.565,0.644 1.47,1.061 2.369,1.259 C 3.345,-0.489 3.049,0.478 2.883,1.477 1.701,1.838 0.503,1.138 0,0"
             style="fill:#ada7ab;fill-opacity:1;fill-rule:nonzero;stroke:none"
             id="path348" />
        </g>
        <g
           id="g350"
           transform="translate(105.4873,344.562)">
          <path
             d="m 0,0 c -0.29,-1.136 -0.476,-2.298 -0.53,-3.469 1.152,0.423 2.826,0.146 4.176,-0.312 0.257,1.051 0.63,2.066 1.074,3.055 C 3.348,0.099 1.437,0.388 0,0"
             style="fill:#ada7ab;fill-opacity:1;fill-rule:nonzero;stroke:none"
             id="path352" />
        </g>
        <g
           id="g354"
           transform="translate(112.9194,348.5601)">
          <path
             d="M 0,0 C 0.143,0.211 0.284,0.425 0.43,0.634 1.234,1.792 2.065,3.407 1.152,4.481 0.649,5.074 -0.243,5.216 -0.991,5.005 -1.739,4.795 -2.369,4.293 -2.938,3.763 -3.4,3.332 -3.829,2.869 -4.23,2.383 -2.632,2.031 -1.103,1.189 0,0"
             style="fill:#ada7ab;fill-opacity:1;fill-rule:nonzero;stroke:none"
             id="path356" />
        </g>
        <g
           id="g358"
           transform="translate(130.6318,341.9111)">
          <path
             d="m 0,0 c -4.092,2.332 -9.447,1.867 -13.443,-0.626 -3.995,-2.494 -6.679,-6.776 -7.848,-11.339 0.053,0.207 9.765,-0.718 10.728,-1.537 0.972,-0.828 1.731,-1.879 2.69,-2.722 3.123,-2.748 8.342,-2.671 11.382,0.169 C 8.551,-11.345 5.329,-3.038 0,0"
             style="fill:#ffffff;fill-opacity:1;fill-rule:nonzero;stroke:none"
             id="path360" />
        </g>
        <g
           id="g362"
           transform="translate(136.1357,331.853)">
          <path
             d="m 0,0 c 0.582,-7.205 -0.012,-14.269 -0.399,-21.451 -0.046,-0.845 -0.227,-1.879 -1.03,-2.146 -0.649,-0.216 -1.365,0.26 -1.658,0.879 -0.292,0.619 -0.269,1.334 -0.241,2.017 0.241,5.684 0.381,11.313 0.381,16.972 0.016,0.726 0.037,1.476 0.345,2.134 0.309,0.658 0.986,1.2 1.707,1.115 0.722,-0.086 1.271,-1.011 0.842,-1.597"
             style="fill:#ffffff;fill-opacity:1;fill-rule:nonzero;stroke:none"
             id="path364" />
        </g>
        <g
           id="g366"
           transform="translate(133.6191,308.3398)">
          <path
             d="M 0,0 C 0.017,0.21 0.034,0.421 0.051,0.631"
             style="fill:none;stroke:#000000;stroke-width:0.7;stroke-linecap:round;stroke-linejoin:round;stroke-miterlimit:10;stroke-dasharray:none;stroke-opacity:1"
             id="path368" />
        </g>
        <g
           id="g370"
           transform="translate(134.9468,308.3965)">
          <path
             d="M 0,0 V 0.63"
             style="fill:none;stroke:#000000;stroke-width:0.7;stroke-linecap:round;stroke-linejoin:round;stroke-miterlimit:10;stroke-dasharray:none;stroke-opacity:1"
             id="path372" />
        </g>
        <g
           id="g374"
           transform="translate(116.1182,329.4312)">
          <path
             d="M 0,0 C 0.834,1.27 1.343,2.751 1.464,4.266 1.514,4.898 1.497,5.548 1.292,6.149 1.089,6.75 0.68,7.302 0.106,7.574 -0.467,7.847 -1.21,7.792 -1.674,7.357"
             style="fill:none;stroke:#000000;stroke-width:0.7;stroke-linecap:round;stroke-linejoin:round;stroke-miterlimit:10;stroke-dasharray:none;stroke-opacity:1"
             id="path376" />
        </g>
        <g
           id="g378"
           transform="translate(119.5264,330.4424)">
          <path
             d="m 0,0 c -0.592,0.427 -1.483,0.578 -2.011,0.081 -0.409,-0.385 -0.396,-0.947 -0.398,-1.461 -0.003,-0.563 0.284,-1.127 0.726,-1.47 0.469,-0.363 1.115,-0.484 1.683,-0.317 0.273,0.082 0.533,0.231 0.7,0.46 0.172,0.236 0.233,0.538 0.217,0.829 C 0.88,-1.232 0.541,-0.39 0,0"
             style="fill:#ffffff;fill-opacity:1;fill-rule:nonzero;stroke:none"
             id="path380" />
        </g>
        <g
           id="g382"
           transform="translate(118.3574,327.3081)">
          <path
             d="M 0,0 C 0.018,0.161 0.036,0.321 0.054,0.481"
             style="fill:none;stroke:#000000;stroke-width:0.7;stroke-linecap:round;stroke-linejoin:round;stroke-miterlimit:10;stroke-dasharray:none;stroke-opacity:1"
             id="path384" />
        </g>
        <g
           id="g386"
           transform="translate(119.6772,327.4507)">
          <path
             d="M 0,0 V 0.464"
             style="fill:none;stroke:#000000;stroke-width:0.7;stroke-linecap:round;stroke-linejoin:round;stroke-miterlimit:10;stroke-dasharray:none;stroke-opacity:1"
             id="path388" />
        </g>
        <g
           id="g390"
           transform="translate(123.7212,328.2324)">
          <path
             d="M 0,0 C 0.142,0.736 0.284,1.473 0.425,2.21 0.89,1.544 1.354,0.878 1.819,0.212"
             style="fill:none;stroke:#000000;stroke-width:0.7;stroke-linecap:round;stroke-linejoin:round;stroke-miterlimit:10;stroke-dasharray:none;stroke-opacity:1"
             id="path392" />
        </g>
        <g
           id="g394"
           transform="translate(130.7637,328.3452)">
          <path
             d="M 0,0 C 0.5,0.632 1,1.264 1.5,1.896 1.588,1.113 1.676,0.331 1.764,-0.453"
             style="fill:none;stroke:#000000;stroke-width:0.7;stroke-linecap:round;stroke-linejoin:round;stroke-miterlimit:10;stroke-dasharray:none;stroke-opacity:1"
             id="path396" />
        </g>
        <g
           id="g398"
           transform="translate(125.3574,324.9316)">
          <path
             d="m 0,0 c -0.104,0 -0.206,0.028 -0.293,0.086 -0.163,0.105 -0.256,0.291 -0.249,0.499 0.007,0.208 0.114,0.389 0.284,0.482 0.008,0.004 0.014,0.007 0.022,0.011 0.008,0.005 0.017,0.008 0.026,0.013 0.177,0.076 0.385,0.051 0.554,-0.07 C 0.513,0.9 0.604,0.713 0.588,0.519 0.573,0.326 0.452,0.155 0.265,0.063 0.179,0.021 0.088,0 0,0"
             style="fill:#000000;fill-opacity:1;fill-rule:nonzero;stroke:none"
             id="path400" />
        </g>
        <g
           id="g402"
           transform="translate(130.1807,324.9316)">
          <path
             d="m 0,0 c -0.104,0 -0.205,0.028 -0.293,0.086 -0.163,0.105 -0.255,0.291 -0.249,0.499 0.008,0.208 0.114,0.388 0.284,0.482 0.007,0.004 0.014,0.007 0.021,0.011 0.009,0.005 0.018,0.008 0.027,0.013 0.177,0.076 0.385,0.053 0.554,-0.07 C 0.513,0.901 0.604,0.713 0.589,0.52 0.573,0.325 0.452,0.154 0.265,0.062 0.179,0.021 0.088,0 0,0"
             style="fill:#000000;fill-opacity:1;fill-rule:nonzero;stroke:none"
             id="path404" />
        </g>
        <g
           id="g406"
           transform="translate(126.542,323.8945)">
          <path
             d="M 0,0 C 0.729,-0.043 1.459,-0.087 2.188,-0.131"
             style="fill:none;stroke:#000000;stroke-width:0.7;stroke-linecap:round;stroke-linejoin:round;stroke-miterlimit:10;stroke-dasharray:none;stroke-opacity:1"
             id="path408" />
        </g>
      </g>
    </g>
  </g>
</svg>
